<?xml version="1.0" encoding="utf-8" standalone="no"?>
<!DOCTYPE svg PUBLIC "-//W3C//DTD SVG 1.1//EN"
  "http://www.w3.org/Graphics/SVG/1.1/DTD/svg11.dtd">
<svg xmlns:xlink="http://www.w3.org/1999/xlink" width="432pt" height="288pt" viewBox="0 0 432 288" xmlns="http://www.w3.org/2000/svg" version="1.1">
 <metadata>
  <rdf:RDF xmlns:dc="http://purl.org/dc/elements/1.1/" xmlns:cc="http://creativecommons.org/ns#" xmlns:rdf="http://www.w3.org/1999/02/22-rdf-syntax-ns#">
   <cc:Work>
    <dc:type rdf:resource="http://purl.org/dc/dcmitype/StillImage"/>
    <dc:date>2024-11-08T17:40:29.211939</dc:date>
    <dc:format>image/svg+xml</dc:format>
    <dc:creator>
     <cc:Agent>
      <dc:title>Matplotlib v3.9.2, https://matplotlib.org/</dc:title>
     </cc:Agent>
    </dc:creator>
   </cc:Work>
  </rdf:RDF>
 </metadata>
 <defs>
  <style type="text/css">*{stroke-linejoin: round; stroke-linecap: butt}</style>
 </defs>
 <g id="figure_1">
  <g id="patch_1">
   <path d="M 0 288 
L 432 288 
L 432 0 
L 0 0 
z
" style="fill: #ffffff"/>
  </g>
  <g id="patch_2">
   <path d="M 110.52 256.32 
L 332.28 256.32 
L 332.28 34.56 
L 110.52 34.56 
z
" style="fill: #ffffff"/>
  </g>
  <g id="pane3d_1">
   <g id="patch_3">
    <path d="M 126.928998 201.845509 
L 198.28035 140.053426 
L 198.28035 47.365302 
L 126.928998 109.157385 
" style="fill: #f2f2f2; opacity: 0.5; stroke: #f2f2f2; stroke-linejoin: miter"/>
   </g>
  </g>
  <g id="pane3d_2">
   <g id="patch_4">
    <path d="M 198.28035 140.053426 
L 321.864516 175.729102 
L 321.864516 83.040977 
L 198.28035 47.365302 
" style="fill: #e6e6e6; opacity: 0.5; stroke: #e6e6e6; stroke-linejoin: miter"/>
   </g>
  </g>
  <g id="pane3d_3">
   <g id="patch_5">
    <path d="M 126.928998 201.845509 
L 250.513164 237.521185 
L 321.864516 175.729102 
L 198.28035 140.053426 
" style="fill: #ececec; opacity: 0.5; stroke: #ececec; stroke-linejoin: miter"/>
   </g>
  </g>
  <g id="grid3d_1">
   <g id="Line3DCollection_1">
    <path d="M 148.279476 208.008861 
L 219.630827 146.216778 
L 219.630827 53.528654 
" style="fill: none; stroke: #b0b0b0; stroke-width: 0.8"/>
    <path d="M 175.251537 215.795025 
L 246.602889 154.002942 
L 246.602889 61.314817 
" style="fill: none; stroke: #b0b0b0; stroke-width: 0.8"/>
    <path d="M 202.223598 223.581188 
L 273.57495 161.789105 
L 273.57495 69.10098 
" style="fill: none; stroke: #b0b0b0; stroke-width: 0.8"/>
    <path d="M 229.19566 231.367351 
L 300.547011 169.575268 
L 300.547011 76.887144 
" style="fill: none; stroke: #b0b0b0; stroke-width: 0.8"/>
   </g>
  </g>
  <g id="grid3d_2">
   <g id="Line3DCollection_2">
    <path d="M 131.469539 105.225161 
L 131.469539 197.913286 
L 255.053705 233.588961 
" style="fill: none; stroke: #b0b0b0; stroke-width: 0.8"/>
    <path d="M 147.037106 91.743252 
L 147.037106 184.431377 
L 270.621272 220.107052 
" style="fill: none; stroke: #b0b0b0; stroke-width: 0.8"/>
    <path d="M 162.604674 78.261343 
L 162.604674 170.949468 
L 286.18884 206.625143 
" style="fill: none; stroke: #b0b0b0; stroke-width: 0.8"/>
    <path d="M 178.172241 64.779434 
L 178.172241 157.467559 
L 301.756407 193.143234 
" style="fill: none; stroke: #b0b0b0; stroke-width: 0.8"/>
    <path d="M 193.739809 51.297525 
L 193.739809 143.98565 
L 317.323975 179.661325 
" style="fill: none; stroke: #b0b0b0; stroke-width: 0.8"/>
   </g>
  </g>
  <g id="grid3d_3">
   <g id="Line3DCollection_3">
    <path d="M 321.864516 173.875339 
L 198.28035 138.199664 
L 126.928998 199.991747 
" style="fill: none; stroke: #b0b0b0; stroke-width: 0.8"/>
    <path d="M 321.864516 149.151417 
L 198.28035 113.475741 
L 126.928998 175.267824 
" style="fill: none; stroke: #b0b0b0; stroke-width: 0.8"/>
    <path d="M 321.864516 124.427494 
L 198.28035 88.751818 
L 126.928998 150.543901 
" style="fill: none; stroke: #b0b0b0; stroke-width: 0.8"/>
    <path d="M 321.864516 99.703572 
L 198.28035 64.027896 
L 126.928998 125.819979 
" style="fill: none; stroke: #b0b0b0; stroke-width: 0.8"/>
   </g>
  </g>
  <g id="axis3d_1">
   <g id="line2d_1">
    <path d="M 126.928998 201.845509 
L 250.513164 237.521185 
" style="fill: none; stroke: #000000; stroke-width: 0.8; stroke-linecap: square"/>
   </g>
   <g id="xtick_1">
    <g id="line2d_2">
     <path d="M 148.850286 207.514524 
L 147.137854 208.997534 
" style="fill: none; stroke: #000000; stroke-width: 0.8; stroke-linecap: square"/>
    </g>
    <g id="text_1">
     <text style="font: 10px 'Times New Roman', serif; text-anchor: middle" x="141.175228" y="230.333757" transform="rotate(-0 141.175228 230.333757)">0</text>
    </g>
   </g>
   <g id="xtick_2">
    <g id="line2d_3">
     <path d="M 175.822348 215.300688 
L 174.109915 216.783698 
" style="fill: none; stroke: #000000; stroke-width: 0.8; stroke-linecap: square"/>
    </g>
    <g id="text_2">
     <text style="font: 10px 'Times New Roman', serif; text-anchor: middle" x="168.14729" y="238.119921" transform="rotate(-0 168.14729 238.119921)">100</text>
    </g>
   </g>
   <g id="xtick_3">
    <g id="line2d_4">
     <path d="M 202.794409 223.086851 
L 201.081977 224.569861 
" style="fill: none; stroke: #000000; stroke-width: 0.8; stroke-linecap: square"/>
    </g>
    <g id="text_3">
     <text style="font: 10px 'Times New Roman', serif; text-anchor: middle" x="195.119351" y="245.906084" transform="rotate(-0 195.119351 245.906084)">200</text>
    </g>
   </g>
   <g id="xtick_4">
    <g id="line2d_5">
     <path d="M 229.766471 230.873015 
L 228.054038 232.356025 
" style="fill: none; stroke: #000000; stroke-width: 0.8; stroke-linecap: square"/>
    </g>
    <g id="text_4">
     <text style="font: 10px 'Times New Roman', serif; text-anchor: middle" x="222.091413" y="253.692248" transform="rotate(-0 222.091413 253.692248)">300</text>
    </g>
   </g>
   <g id="text_5">
    <!-- Temperature, $^\circ C$ -->
    <g transform="translate(138.626945 245.876201) rotate(-343.897886)">
     <text>
      <tspan style="font: 10px 'Times New Roman'" x="0 6.108398 10.546875 18.325195 23.325195 27.763672 31.09375 35.532227 38.310547 43.310547 46.640625 51.079102 53.579102" y="-0.578125">Temperature, </tspan>
      <tspan style="font: 7px 'DejaVu Sans'" x="57.538574" y="-4.40625">∘</tspan>
      <tspan style="font: oblique 10px 'DejaVu Sans'" x="63.557617" y="-0.578125">C</tspan>
     </text>
    </g>
   </g>
  </g>
  <g id="axis3d_2">
   <g id="line2d_6">
    <path d="M 321.864516 175.729102 
L 250.513164 237.521185 
" style="fill: none; stroke: #000000; stroke-width: 0.8; stroke-linecap: square"/>
   </g>
   <g id="xtick_5">
    <g id="line2d_7">
     <path d="M 254.065031 233.303556 
L 257.031051 234.159772 
" style="fill: none; stroke: #000000; stroke-width: 0.8; stroke-linecap: square"/>
    </g>
    <g id="text_6">
     <text style="font: 10px 'Times New Roman', serif; text-anchor: middle" x="267.358622" y="253.313523" transform="rotate(-0 267.358622 253.313523)">0</text>
    </g>
   </g>
   <g id="xtick_6">
    <g id="line2d_8">
     <path d="M 269.632599 219.821647 
L 272.598619 220.677863 
" style="fill: none; stroke: #000000; stroke-width: 0.8; stroke-linecap: square"/>
    </g>
    <g id="text_7">
     <text style="font: 10px 'Times New Roman', serif; text-anchor: middle" x="282.926189" y="239.831614" transform="rotate(-0 282.926189 239.831614)">100</text>
    </g>
   </g>
   <g id="xtick_7">
    <g id="line2d_9">
     <path d="M 285.200166 206.339738 
L 288.166186 207.195954 
" style="fill: none; stroke: #000000; stroke-width: 0.8; stroke-linecap: square"/>
    </g>
    <g id="text_8">
     <text style="font: 10px 'Times New Roman', serif; text-anchor: middle" x="298.493757" y="226.349705" transform="rotate(-0 298.493757 226.349705)">200</text>
    </g>
   </g>
   <g id="xtick_8">
    <g id="line2d_10">
     <path d="M 300.767734 192.857829 
L 303.733754 193.714045 
" style="fill: none; stroke: #000000; stroke-width: 0.8; stroke-linecap: square"/>
    </g>
    <g id="text_9">
     <text style="font: 10px 'Times New Roman', serif; text-anchor: middle" x="314.061324" y="212.867796" transform="rotate(-0 314.061324 212.867796)">300</text>
    </g>
   </g>
   <g id="xtick_9">
    <g id="line2d_11">
     <path d="M 316.335302 179.37592 
L 319.301322 180.232136 
" style="fill: none; stroke: #000000; stroke-width: 0.8; stroke-linecap: square"/>
    </g>
    <g id="text_10">
     <text style="font: 10px 'Times New Roman', serif; text-anchor: middle" x="329.628892" y="199.385887" transform="rotate(-0 329.628892 199.385887)">400</text>
    </g>
   </g>
   <g id="text_11">
    <text style="font: 10px 'Times New Roman', serif; text-anchor: middle" x="314.511362" y="236.225517" transform="rotate(-40.893395 314.511362 236.225517)">Stress</text>
   </g>
  </g>
  <g id="axis3d_3">
   <g id="line2d_12">
    <path d="M 321.864516 175.729102 
L 321.864516 83.040977 
" style="fill: none; stroke: #000000; stroke-width: 0.8; stroke-linecap: square"/>
   </g>
   <g id="xtick_10">
    <g id="line2d_13">
     <path d="M 320.875842 173.589934 
L 323.841862 174.44615 
" style="fill: none; stroke: #000000; stroke-width: 0.8; stroke-linecap: square"/>
    </g>
    <g id="text_12">
     <text style="font: 10px 'Times New Roman', serif; text-anchor: middle" x="341.27368" y="178.218754" transform="rotate(-0 341.27368 178.218754)">0</text>
    </g>
   </g>
   <g id="xtick_11">
    <g id="line2d_14">
     <path d="M 320.875842 148.866011 
L 323.841862 149.722228 
" style="fill: none; stroke: #000000; stroke-width: 0.8; stroke-linecap: square"/>
    </g>
    <g id="text_13">
     <text style="font: 10px 'Times New Roman', serif; text-anchor: middle" x="341.27368" y="153.494832" transform="rotate(-0 341.27368 153.494832)">1</text>
    </g>
   </g>
   <g id="xtick_12">
    <g id="line2d_15">
     <path d="M 320.875842 124.142089 
L 323.841862 124.998305 
" style="fill: none; stroke: #000000; stroke-width: 0.8; stroke-linecap: square"/>
    </g>
    <g id="text_14">
     <text style="font: 10px 'Times New Roman', serif; text-anchor: middle" x="341.27368" y="128.770909" transform="rotate(-0 341.27368 128.770909)">2</text>
    </g>
   </g>
   <g id="xtick_13">
    <g id="line2d_16">
     <path d="M 320.875842 99.418166 
L 323.841862 100.274382 
" style="fill: none; stroke: #000000; stroke-width: 0.8; stroke-linecap: square"/>
    </g>
    <g id="text_15">
     <text style="font: 10px 'Times New Roman', serif; text-anchor: middle" x="341.27368" y="104.046987" transform="rotate(-0 341.27368 104.046987)">3</text>
    </g>
   </g>
   <g id="text_16">
    <text style="font: 10px 'Times New Roman', serif; text-anchor: middle" x="366.460694" y="123.732138" transform="rotate(-90 366.460694 123.732138)">Strain, %</text>
   </g>
  </g>
  <g id="axes_1">
   <g id="line2d_17">
    <path d="M 262.744405 211.798859 
L 261.067817 211.331314 
L 205.728297 195.898949 
L 204.902068 195.378404 
L 203.624764 189.934768 
L 198.906741 168.811552 
L 197.502729 163.526042 
L 196.208924 159.656723 
L 195.399021 157.975957 
L 194.606763 157.015095 
L 176.643314 152.005682 
L 176.643314 152.005682 
" clip-path="url(#p5ec174a609)" style="fill: none; stroke: #0000ff; stroke-width: 1.5; stroke-linecap: square"/>
   </g>
   <g id="line2d_18">
    <path d="M 262.744405 211.798859 
" clip-path="url(#p5ec174a609)" style="fill: none; stroke: #ff0000; stroke-width: 1.5; stroke-linecap: square"/>
    <defs>
     <path id="mb76e662f0d" d="M 0 -3 
L -0.673542 -0.927051 
L -2.85317 -0.927051 
L -1.089814 0.354102 
L -1.763356 2.427051 
L -0 1.145898 
L 1.763356 2.427051 
L 1.089814 0.354102 
L 2.85317 -0.927051 
L 0.673542 -0.927051 
z
" style="stroke: #ff0000; stroke-linejoin: bevel"/>
    </defs>
    <g clip-path="url(#p5ec174a609)">
     <use xlink:href="#mb76e662f0d" x="262.744405" y="211.798859" style="fill: #ff0000; stroke: #ff0000; stroke-linejoin: bevel"/>
    </g>
   </g>
   <g id="line2d_19">
    <path d="M 154.901553 180.667309 
" clip-path="url(#p5ec174a609)" style="fill: none; stroke: #ff0000; stroke-width: 1.5; stroke-linecap: square"/>
    <g clip-path="url(#p5ec174a609)">
     <use xlink:href="#mb76e662f0d" x="154.901553" y="180.667309" style="fill: #ff0000; stroke: #ff0000; stroke-linejoin: bevel"/>
    </g>
   </g>
   <g id="line2d_20">
    <path d="M 176.643314 152.005682 
L 218.089188 163.676535 
L 218.52813 163.987997 
L 218.971241 164.448494 
L 219.421591 165.100227 
L 220.325379 167.036641 
L 221.177598 169.623336 
L 222.488352 174.766296 
L 224.565848 184.411798 
L 226.393057 192.703862 
L 227.831638 198.085164 
L 228.98998 201.168553 
L 229.912626 202.643159 
L 262.613178 211.762264 
L 262.613178 211.762264 
" clip-path="url(#p5ec174a609)" style="fill: none; stroke: #ff0000; stroke-width: 1.5; stroke-linecap: square"/>
   </g>
   <g id="line2d_21">
    <path d="M 278.311972 194.136374 
L 270.291849 191.899827 
L 225.621475 179.442734 
L 224.810428 178.335516 
L 223.308942 168.904307 
L 219.637577 144.883459 
L 217.900965 134.915494 
L 216.579169 128.759325 
L 216.013897 126.70373 
L 215.424659 125.053255 
L 214.979562 124.200218 
L 214.530384 123.65835 
L 192.210882 117.434178 
L 192.210882 117.434178 
" clip-path="url(#p5ec174a609)" style="fill: none; stroke: #0000ff; stroke-width: 1.5; stroke-linecap: square"/>
   </g>
   <g id="line2d_22">
    <path d="M 278.311972 194.136374 
" clip-path="url(#p5ec174a609)" style="fill: none; stroke: #ff0000; stroke-width: 1.5; stroke-linecap: square"/>
    <g clip-path="url(#p5ec174a609)">
     <use xlink:href="#mb76e662f0d" x="278.311972" y="194.136374" style="fill: #ff0000; stroke: #ff0000; stroke-linejoin: bevel"/>
    </g>
   </g>
   <g id="line2d_23">
    <path d="M 170.469121 163.004825 
" clip-path="url(#p5ec174a609)" style="fill: none; stroke: #ff0000; stroke-width: 1.5; stroke-linecap: square"/>
    <g clip-path="url(#p5ec174a609)">
     <use xlink:href="#mb76e662f0d" x="170.469121" y="163.004825" style="fill: #ff0000; stroke: #ff0000; stroke-linejoin: bevel"/>
    </g>
   </g>
   <g id="line2d_24">
    <path d="M 192.210882 117.434178 
L 239.585762 130.755989 
L 240.002008 131.076912 
L 240.429945 131.585619 
L 240.860495 132.329118 
L 241.290168 133.337162 
L 242.164548 136.264142 
L 242.954166 139.870856 
L 244.221226 147.167248 
L 248.87205 177.253686 
L 249.894359 182.050609 
L 250.899239 185.334675 
L 251.377221 186.28012 
L 251.841098 186.754521 
L 278.231053 194.113809 
L 278.231053 194.113809 
" clip-path="url(#p5ec174a609)" style="fill: none; stroke: #ff0000; stroke-width: 1.5; stroke-linecap: square"/>
   </g>
   <g id="line2d_25">
    <path d="M 293.87954 176.47389 
L 292.266748 176.024136 
L 246.505469 163.262826 
L 245.636206 162.685846 
L 244.252667 152.51558 
L 240.346464 121.895748 
L 238.840673 111.431091 
L 237.614282 104.236743 
L 237.037595 101.462513 
L 236.275029 98.606935 
L 235.552387 96.643983 
L 207.778449 88.898748 
L 207.778449 88.898748 
" clip-path="url(#p5ec174a609)" style="fill: none; stroke: #0000ff; stroke-width: 1.5; stroke-linecap: square"/>
   </g>
   <g id="line2d_26">
    <path d="M 293.87954 176.47389 
" clip-path="url(#p5ec174a609)" style="fill: none; stroke: #ff0000; stroke-width: 1.5; stroke-linecap: square"/>
    <g clip-path="url(#p5ec174a609)">
     <use xlink:href="#mb76e662f0d" x="293.87954" y="176.47389" style="fill: #ff0000; stroke: #ff0000; stroke-linejoin: bevel"/>
    </g>
   </g>
   <g id="line2d_27">
    <path d="M 186.036688 145.34234 
" clip-path="url(#p5ec174a609)" style="fill: none; stroke: #ff0000; stroke-width: 1.5; stroke-linecap: square"/>
    <g clip-path="url(#p5ec174a609)">
     <use xlink:href="#mb76e662f0d" x="186.036688" y="145.34234" style="fill: #ff0000; stroke: #ff0000; stroke-linejoin: bevel"/>
    </g>
   </g>
   <g id="line2d_28">
    <path d="M 207.778449 88.898748 
L 261.843278 104.07994 
L 262.377302 104.537057 
L 262.921544 105.361457 
L 263.420734 106.532291 
L 264.145133 109.036939 
L 264.770439 111.976516 
L 265.535767 116.462932 
L 266.833302 125.770367 
L 270.921071 157.817865 
L 271.814886 163.270418 
L 272.726994 167.585358 
L 273.602282 170.221558 
L 274.018701 170.935358 
L 293.754667 176.439067 
L 293.754667 176.439067 
" clip-path="url(#p5ec174a609)" style="fill: none; stroke: #ff0000; stroke-width: 1.5; stroke-linecap: square"/>
   </g>
   <g id="line2d_29">
    <path d="M 309.459528 158.814991 
L 305.673809 157.759279 
L 267.120236 147.00796 
L 265.878286 138.006438 
L 261.194577 96.617763 
L 259.67903 85.180686 
L 258.747826 79.318503 
L 257.938972 75.286342 
L 257.145044 72.620776 
L 256.345595 71.496385 
L 223.35521 62.296456 
L 223.35521 62.296456 
" clip-path="url(#p5ec174a609)" style="fill: none; stroke: #0000ff; stroke-width: 1.5; stroke-linecap: square"/>
   </g>
   <g id="line2d_30">
    <path d="M 309.459528 158.814991 
" clip-path="url(#p5ec174a609)" style="fill: none; stroke: #ff0000; stroke-width: 1.5; stroke-linecap: square"/>
    <g clip-path="url(#p5ec174a609)">
     <use xlink:href="#mb76e662f0d" x="309.459528" y="158.814991" style="fill: #ff0000; stroke: #ff0000; stroke-linejoin: bevel"/>
    </g>
   </g>
   <g id="line2d_31">
    <path d="M 201.604256 127.679856 
" clip-path="url(#p5ec174a609)" style="fill: none; stroke: #ff0000; stroke-width: 1.5; stroke-linecap: square"/>
    <g clip-path="url(#p5ec174a609)">
     <use xlink:href="#mb76e662f0d" x="201.604256" y="127.679856" style="fill: #ff0000; stroke: #ff0000; stroke-linejoin: bevel"/>
    </g>
   </g>
   <g id="line2d_32">
    <path d="M 223.35521 62.296456 
L 284.614168 79.38656 
L 285.468672 80.373312 
L 285.882044 81.195987 
L 286.312641 82.398666 
L 287.187588 86.038667 
L 288.094215 91.462828 
L 289.407648 101.692599 
L 291.578145 121.581739 
L 293.329919 137.029619 
L 294.702262 146.896414 
L 295.533374 151.351184 
L 296.388217 154.361039 
L 296.843655 155.296841 
L 309.29087 158.767958 
L 309.29087 158.767958 
" clip-path="url(#p5ec174a609)" style="fill: none; stroke: #ff0000; stroke-width: 1.5; stroke-linecap: square"/>
   </g>
   <g id="line2d_33">
    <path d="M 139.333985 198.329793 
" clip-path="url(#p5ec174a609)" style="fill: none; stroke: #ff0000; stroke-width: 1.5; stroke-linecap: square"/>
    <g clip-path="url(#p5ec174a609)">
     <use xlink:href="#mb76e662f0d" x="139.333985" y="198.329793" style="fill: #ff0000; stroke: #ff0000; stroke-linejoin: bevel"/>
    </g>
   </g>
  </g>
 </g>
 <defs>
  <clipPath id="p5ec174a609">
   <rect x="110.52" y="34.56" width="221.76" height="221.76"/>
  </clipPath>
 </defs>
</svg>
