<?xml version="1.0" encoding="UTF-8" standalone="no"?>
<svg
   width="210.19244pt"
   height="199.68794pt"
   viewBox="0 0 210.19244 199.68794"
   version="1.1"
   id="svg324"
   sodipodi:docname="3D_calibration.svg"
   inkscape:version="1.2.2 (732a01da63, 2022-12-09)"
   xmlns:inkscape="http://www.inkscape.org/namespaces/inkscape"
   xmlns:sodipodi="http://sodipodi.sourceforge.net/DTD/sodipodi-0.dtd"
   xmlns:xlink="http://www.w3.org/1999/xlink"
   xmlns="http://www.w3.org/2000/svg"
   xmlns:svg="http://www.w3.org/2000/svg"
   xmlns:rdf="http://www.w3.org/1999/02/22-rdf-syntax-ns#"
   xmlns:cc="http://creativecommons.org/ns#"
   xmlns:dc="http://purl.org/dc/elements/1.1/">
  <sodipodi:namedview
     id="namedview326"
     pagecolor="#ffffff"
     bordercolor="#666666"
     borderopacity="1.0"
     inkscape:showpageshadow="2"
     inkscape:pageopacity="0.0"
     inkscape:pagecheckerboard="0"
     inkscape:deskcolor="#d1d1d1"
     inkscape:document-units="pt"
     showgrid="false"
     inkscape:zoom="0.86915208"
     inkscape:cx="136.91505"
     inkscape:cy="162.80235"
     inkscape:window-width="1368"
     inkscape:window-height="850"
     inkscape:window-x="-6"
     inkscape:window-y="-6"
     inkscape:window-maximized="1"
     inkscape:current-layer="svg324"
     showguides="true">
    <sodipodi:guide
       position="130.76991,54.8517"
       orientation="-17.97588,20.75676"
       id="guide4307"
       inkscape:locked="false" />
    <sodipodi:guide
       position="111.67206,41.13672"
       orientation="9.2249067,31.955987"
       id="guide4311"
       inkscape:locked="false" />
  </sodipodi:namedview>
  <metadata
     id="metadata2">
    <rdf:RDF>
      <cc:Work>
        <dc:type
           rdf:resource="http://purl.org/dc/dcmitype/StillImage" />
        <dc:date>2024-10-28T08:57:48.449169</dc:date>
        <dc:format>image/svg+xml</dc:format>
        <dc:creator>
          <cc:Agent>
            <dc:title>Matplotlib v3.9.2, https://matplotlib.org/</dc:title>
          </cc:Agent>
        </dc:creator>
      </cc:Work>
    </rdf:RDF>
  </metadata>
  <defs
     id="defs6">
    <marker
       style="overflow:visible"
       id="Arrow1L"
       refX="0"
       refY="0"
       orient="auto-start-reverse"
       inkscape:stockid="Arrow1L"
       markerWidth="8.75"
       markerHeight="5"
       viewBox="0 0 8.75 5"
       inkscape:isstock="true"
       inkscape:collect="always"
       preserveAspectRatio="xMidYMid">
      <path
         style="fill:context-stroke;fill-rule:evenodd;stroke:none"
         d="M 0,0 5,-5 -12.5,0 5,5 Z"
         id="arrow1L"
         transform="scale(-0.5)" />
    </marker>
    <style
       type="text/css"
       id="style4">*{stroke-linejoin: round; stroke-linecap: butt}</style>
    <clipPath
       id="clipPath4061">
      <path
         clip-rule="nonzero"
         d="m 34,0 h 9.378906 V 10.871094 H 34 Z m 0,0"
         id="path9413" />
    </clipPath>
  </defs>
  <path
     d="M 0.49524962,155.57466 71.8466,93.782579 V 1.0944505 L 0.49524962,62.886539"
     style="opacity:0.5;fill:#f2f2f2;stroke:#f2f2f2;stroke-linejoin:miter"
     id="path14" />
  <path
     d="M 71.8466,93.782579 195.43077,129.45825 V 36.770126 L 71.8466,1.0944505"
     style="opacity:0.5;fill:#e6e6e6;stroke:#e6e6e6;stroke-linejoin:miter"
     id="path18" />
  <path
     d="M 0.49524962,155.57466 124.07941,191.25033 195.43077,129.45825 71.8466,93.782579"
     style="opacity:0.5;fill:#ececec;stroke:#ececec;stroke-linejoin:miter"
     id="path22" />
  <path
     d="M 8.3596896,157.84493 79.71105,96.052849 V 3.3647205"
     style="fill:none;stroke:#b0b0b0;stroke-width:0.8"
     id="path26" />
  <path
     d="m 32.32669,164.7636 71.35135,-61.79208 V 10.283396"
     style="fill:none;stroke:#b0b0b0;stroke-width:0.8"
     id="path28" />
  <path
     d="M 56.29368,171.68228 127.64504,109.8902 V 17.202072"
     style="fill:none;stroke:#b0b0b0;stroke-width:0.8"
     id="path30" />
  <path
     d="m 80.26068,178.60096 71.35135,-61.79209 V 24.120747"
     style="fill:none;stroke:#b0b0b0;stroke-width:0.8"
     id="path32" />
  <path
     d="m 104.22767,185.51963 71.35135,-61.79208 V 31.039422"
     style="fill:none;stroke:#b0b0b0;stroke-width:0.8"
     id="path34" />
  <path
     d="M 5.0357896,58.954309 V 151.64244 L 128.61995,187.31811"
     style="fill:none;stroke:#b0b0b0;stroke-width:0.8"
     id="path38" />
  <path
     d="M 20.60336,45.472401 V 138.16053 L 144.18752,173.8362"
     style="fill:none;stroke:#b0b0b0;stroke-width:0.8"
     id="path40" />
  <path
     d="m 36.17092,31.990492 v 92.688128 l 123.58417,35.67567"
     style="fill:none;stroke:#b0b0b0;stroke-width:0.8"
     id="path42" />
  <path
     d="m 51.73849,18.508583 v 92.688127 l 123.58417,35.67567"
     style="fill:none;stroke:#b0b0b0;stroke-width:0.8"
     id="path44" />
  <path
     d="M 67.30606,5.0266735 V 97.714799 l 123.58417,35.675671"
     style="fill:none;stroke:#b0b0b0;stroke-width:0.8"
     id="path46" />
  <path
     d="M 195.43077,127.46204 71.8466,91.786359 0.49524962,153.57844"
     style="fill:none;stroke:#b0b0b0;stroke-width:0.8"
     id="path50" />
  <path
     d="M 195.43077,102.77992 71.8466,67.104249 0.49524962,128.89633"
     style="fill:none;stroke:#b0b0b0;stroke-width:0.8"
     id="path52" />
  <path
     d="M 195.43077,78.097809 71.8466,42.422135 0.49524962,104.21422"
     style="fill:none;stroke:#b0b0b0;stroke-width:0.8"
     id="path54" />
  <path
     d="M 195.43077,53.415698 71.8466,17.740023 0.49524962,79.532109"
     style="fill:none;stroke:#b0b0b0;stroke-width:0.8"
     id="path56" />
  <path
     d="m 8.9305096,157.35059 -1.71244,1.48301"
     style="fill:none;stroke:#000000;stroke-width:0.8;stroke-linecap:square"
     id="path63" />
  <path
     d="m 32.8975,164.26927 -1.71243,1.48301"
     style="fill:none;stroke:#000000;stroke-width:0.8;stroke-linecap:square"
     id="path70" />
  <path
     d="m 56.86449,171.18794 -1.71243,1.48301"
     style="fill:none;stroke:#000000;stroke-width:0.8;stroke-linecap:square"
     id="path77" />
  <path
     d="m 80.83149,178.10662 -1.71243,1.48301"
     style="fill:none;stroke:#000000;stroke-width:0.8;stroke-linecap:square"
     id="path84" />
  <path
     d="m 104.79848,185.02529 -1.71243,1.48301"
     style="fill:none;stroke:#000000;stroke-width:0.8;stroke-linecap:square"
     id="path91" />
  <text
     id="text104"
     transform="rotate(16.102107)"
     x="67.624588"
     y="163.25414" />
  <path
     d="m 195.43077,129.45825 -71.35136,61.79208"
     style="fill:none;stroke:#000000;stroke-width:0.8;stroke-linecap:square"
     id="path110" />
  <path
     d="m 127.63128,187.03271 2.96602,0.85621"
     style="fill:none;stroke:#000000;stroke-width:0.8;stroke-linecap:square"
     id="path113" />
  <path
     d="m 143.19885,173.5508 2.96602,0.85621"
     style="fill:none;stroke:#000000;stroke-width:0.8;stroke-linecap:square"
     id="path120" />
  <path
     d="m 158.76642,160.06889 2.96602,0.85621"
     style="fill:none;stroke:#000000;stroke-width:0.8;stroke-linecap:square"
     id="path127" />
  <path
     d="M 174.33398,146.58698 177.3,147.44319"
     style="fill:none;stroke:#000000;stroke-width:0.8;stroke-linecap:square"
     id="path134" />
  <path
     d="m 189.90155,133.10507 2.96602,0.85622"
     style="fill:none;stroke:#000000;stroke-width:0.8;stroke-linecap:square"
     id="path141" />
  <text
     style="font-style:normal;font-variant:normal;font-weight:normal;font-stretch:normal;font-size:10px;line-height:normal;font-family:'Times New Roman', serif;text-anchor:middle"
     x="20.075569"
     y="238.90787"
     transform="rotate(-40.893407)"
     id="text148">Stress</text>
  <path
     d="M 195.43077,129.45825 V 36.770126"
     style="fill:none;stroke:#000000;stroke-width:0.8;stroke-linecap:square"
     id="path152" />
  <path
     d="m 194.44209,127.17663 2.96602,0.85622"
     style="fill:none;stroke:#000000;stroke-width:0.8;stroke-linecap:square"
     id="path155" />
  <path
     d="m 194.44209,102.49452 2.96602,0.85621"
     style="fill:none;stroke:#000000;stroke-width:0.8;stroke-linecap:square"
     id="path162" />
  <path
     d="m 194.44209,77.812409 2.96602,0.85621"
     style="fill:none;stroke:#000000;stroke-width:0.8;stroke-linecap:square"
     id="path169" />
  <path
     d="m 194.44209,53.130293 2.96602,0.856216"
     style="fill:none;stroke:#000000;stroke-width:0.8;stroke-linecap:square"
     id="path176" />
  <text
     style="font-style:normal;font-variant:normal;font-weight:normal;font-stretch:normal;font-size:10px;line-height:normal;font-family:'Times New Roman', serif;text-anchor:middle"
     x="-77.461456"
     y="208.5274"
     transform="rotate(-90)"
     id="text183">Strain, %</text>
  <path
     d="M 248.27899,228.0866"
     clip-path="url(#p84322088f8)"
     style="fill:none;stroke:#ff0000;stroke-width:1.5;stroke-linecap:square"
     id="path190"
     transform="translate(-126.43375,-46.270851)" />
  <defs
     id="defs193">
    <path
       id="m4bac54831c"
       d="m 0,-3 -0.673542,2.072949 H -2.85317 L -1.089814,0.354102 -1.763356,2.427051 0,1.145898 1.763356,2.427051 1.089814,0.354102 2.85317,-0.927051 H 0.673542 Z"
       style="stroke:#ff0000;stroke-linejoin:bevel" />
  </defs>
  <path
     d="M 140.42371,196.95146"
     clip-path="url(#p84322088f8)"
     style="fill:none;stroke:#ff0000;stroke-width:1.5;stroke-linecap:square"
     id="path200"
     transform="translate(-126.43375,-46.270851)" />
  <use
     xlink:href="#m4bac54831c"
     x="140.42372"
     y="196.95146"
     style="opacity:1;fill:#ff0000;stroke:#ff0000;stroke-linejoin:bevel"
     id="use202"
     clip-path="url(#p84322088f8)"
     transform="translate(-134.2982,-48.379655)" />
  <path
     d="m 254.93994,220.48521 v 0 l -39.07925,-10.85058 -0.96697,-1.96498 -3.15076,-16.02017 -0.6992,-2.75977 -0.61353,-1.78064 -0.66569,-0.91346 -31.33937,-8.70156 v 0"
     clip-path="url(#p84322088f8)"
     style="display:none;fill:none;stroke:#0000ff;stroke-width:1.5;stroke-linecap:square"
     id="path210"
     transform="translate(-126.43375,-46.270851)" />
  <path
     d="M 254.93994,220.48521"
     clip-path="url(#p84322088f8)"
     style="fill:none;stroke:#ff0000;stroke-width:1.5;stroke-linecap:square"
     id="path213"
     transform="translate(-126.43375,-46.270851)" />
  <use
     xlink:href="#m4bac54831c"
     x="254.93994"
     y="220.48521"
     style="display:none;fill:#ff0000;stroke:#ff0000;stroke-linejoin:bevel"
     id="use215"
     clip-path="url(#p84322088f8)"
     transform="translate(-126.43375,-46.270851)" />
  <path
     d="M 147.11777,189.35963"
     clip-path="url(#p84322088f8)"
     style="display:none;fill:none;stroke:#ff0000;stroke-width:1.5;stroke-linecap:square"
     id="path220"
     transform="translate(-126.43375,-46.270851)" />
  <use
     xlink:href="#m4bac54831c"
     x="147.11777"
     y="189.35963"
     style="display:none;fill:#ff0000;stroke:#ff0000;stroke-linejoin:bevel"
     id="use222"
     clip-path="url(#p84322088f8)"
     transform="translate(-134.2982,-48.379655)" />
  <path
     d="m 209.76454,186.19561 7.66069,2.1274 0.37692,0.23046 0.38563,0.42238 0.3936,0.72901 0.78724,2.45312 1.01607,4.68873 2.26588,11.3034 0.59496,2.09179 0.52663,1.2398 0.5242,0.49514 30.51781,8.47345 v 0"
     clip-path="url(#p84322088f8)"
     style="display:none;fill:none;stroke:#ff0000;stroke-width:1.5;stroke-linecap:square"
     id="path227"
     sodipodi:nodetypes="ccccccccccccc"
     transform="translate(-126.43375,-46.270851)" />
  <path
     d="M 262.71269,211.65432"
     clip-path="url(#p84322088f8)"
     style="fill:none;stroke:#ff0000;stroke-width:1.5;stroke-linecap:square"
     id="path233"
     transform="translate(-126.43375,-46.270851)" />
  <path
     d="M 154.90155,180.53193"
     clip-path="url(#p84322088f8)"
     style="fill:none;stroke:#ff0000;stroke-width:1.5;stroke-linecap:square"
     id="path240"
     transform="translate(-126.43375,-46.270851)" />
  <path
     style="fill:none;stroke:#000000;stroke-width:0.75px;stroke-linecap:butt;stroke-linejoin:miter;stroke-dasharray:0.75, 0.75;stroke-dashoffset:0;stroke-opacity:1"
     d="M 51.73849,96.679989 26.81302,118.26608 v 6.68226"
     id="path1861"
     sodipodi:nodetypes="ccc" />
  <use
     xlink:href="#m4bac54831c"
     x="154.90155"
     y="180.53192"
     style="fill:#ff0000;stroke:#ff0000;stroke-linejoin:bevel"
     id="use242"
     clip-path="url(#p84322088f8)"
     transform="translate(-134.2982,-48.379655)" />
  <path
     d="M 278.28026,193.99891"
     clip-path="url(#p84322088f8)"
     style="fill:none;stroke:#ff0000;stroke-width:1.5;stroke-linecap:square"
     id="path253"
     transform="translate(-126.43375,-46.270851)" />
  <path
     d="M 170.46912,162.87651"
     clip-path="url(#p84322088f8)"
     style="fill:none;stroke:#ff0000;stroke-width:1.5;stroke-linecap:square"
     id="path260"
     transform="translate(-126.43375,-46.270851)" />
  <use
     xlink:href="#m4bac54831c"
     x="170.46912"
     y="162.87651"
     style="fill:#ff0000;stroke:#ff0000;stroke-linejoin:bevel"
     id="use262"
     clip-path="url(#p84322088f8)"
     transform="translate(-134.2982,-48.379655)" />
  <path
     d="M 293.84783,176.34349"
     clip-path="url(#p84322088f8)"
     style="fill:none;stroke:#ff0000;stroke-width:1.5;stroke-linecap:square"
     id="path273"
     transform="translate(-126.43375,-46.270851)" />
  <path
     d="M 186.03669,145.2211"
     clip-path="url(#p84322088f8)"
     style="fill:none;stroke:#ff0000;stroke-width:1.5;stroke-linecap:square"
     id="path280"
     transform="translate(-126.43375,-46.270851)" />
  <use
     xlink:href="#m4bac54831c"
     x="186.03668"
     y="145.2211"
     style="fill:#ff0000;stroke:#ff0000;stroke-linejoin:bevel"
     id="use282"
     clip-path="url(#p84322088f8)"
     transform="translate(-134.2982,-48.379655)" />
  <path
     d="M 309.42643,158.69126"
     clip-path="url(#p84322088f8)"
     style="fill:none;stroke:#ff0000;stroke-width:1.5;stroke-linecap:square"
     id="path293"
     transform="translate(-126.43375,-46.270851)" />
  <path
     d="M 201.60426,127.56568"
     clip-path="url(#p84322088f8)"
     style="fill:none;stroke:#ff0000;stroke-width:1.5;stroke-linecap:square"
     id="path300"
     transform="translate(-126.43375,-46.270851)" />
  <path
     id="use302"
     d="m 67.30607,76.186029 -0.67355,2.07295 H 64.4529 l 1.76335,1.28115 -0.67354,2.07295 1.76336,-1.28115 1.76335,1.28115 -0.67354,-2.07295 1.76336,-1.28115 h -2.17963 z"
     style="fill:#ff0000;stroke:#ff0000;stroke-linejoin:bevel" />
  <path
     d="M 139.33399,198.18734"
     clip-path="url(#p84322088f8)"
     style="fill:none;stroke:#ff0000;stroke-width:1.5;stroke-linecap:square"
     id="path310"
     transform="translate(-126.43375,-46.270851)" />
  <defs
     id="defs322">
    <clipPath
       id="p84322088f8">
      <rect
         x="110.52"
         y="34.560001"
         width="221.75999"
         height="221.75999"
         id="rect319" />
    </clipPath>
  </defs>
  <path
     style="fill:none;stroke:#ff0000;stroke-width:0.75px;stroke-linecap:butt;stroke-linejoin:miter;stroke-dasharray:1.5, 1.5;stroke-dashoffset:0;stroke-opacity:1"
     d="M 5.0357896,149.64622 67.30607,79.024559"
     id="path1195" />
  <g
     id="g3102"
     transform="rotate(-40.8934,-119.58933,287.4607)">
    <rect
       style="opacity:1;fill:#f1f1f1;fill-opacity:0.5;stroke:none;stroke-width:0.850395;stroke-dasharray:0.75, 0.75;stroke-dashoffset:0;paint-order:fill markers stroke"
       id="rect2873"
       width="45.734226"
       height="15.100924"
       x="98.587463"
       y="229.53406" />
    <g
       inkscape:label=""
       transform="translate(100.13416,231.5471)"
       id="g2432">
      <g
         fill="#000000"
         fill-opacity="1"
         id="g32"
         transform="translate(-0.375,0.20375)">
        <g
           id="use30"
           transform="translate(0,8.3800001)">
          <path
             d="M 7.0625,-2.328125 C 7.078125,-2.375 7.109375,-2.4375 7.109375,-2.46875 c 0,0 0,-0.109375 -0.125,-0.109375 -0.09375,0 -0.109375,0.0625 -0.125,0.125 C 6.203125,-0.984375 5.84375,-0.3125 4.140625,-0.3125 H 2.6875 c -0.140625,0 -0.171875,0 -0.21875,0 -0.109375,-0.015625 -0.140625,-0.03125 -0.140625,-0.109375 0,-0.03125 0,-0.046875 0.046875,-0.21875 L 3.0625,-3.375 h 0.984375 c 0.84375,0 0.84375,0.21875 0.84375,0.46875 0,0.0625 0,0.1875 -0.0625,0.484375 C 4.8125,-2.375 4.796875,-2.34375 4.796875,-2.3125 c 0,0.046875 0.03125,0.109375 0.125,0.109375 C 5,-2.203125 5.03125,-2.25 5.078125,-2.40625 l 0.5625,-2.328125 c 0,-0.0625 -0.046875,-0.109375 -0.125,-0.109375 -0.078125,0 -0.109375,0.0625 -0.125,0.171875 -0.21875,0.765625 -0.390625,1 -1.3125,1 h -0.9375 l 0.59375,-2.40625 C 3.828125,-6.4375 3.84375,-6.46875 4.28125,-6.46875 H 5.6875 c 1.203125,0 1.515625,0.28125 1.515625,1.109375 0,0.234375 0,0.25 -0.046875,0.53125 0,0.046875 -0.015625,0.125 -0.015625,0.171875 0,0.046875 0.03125,0.125 0.125,0.125 0.109375,0 0.125,-0.0625 0.140625,-0.25 L 7.609375,-6.515625 C 7.640625,-6.78125 7.59375,-6.78125 7.34375,-6.78125 H 2.296875 c -0.1875,0 -0.296875,0 -0.296875,0.203125 0,0.109375 0.09375,0.109375 0.28125,0.109375 0.375,0 0.65625,0 0.65625,0.171875 0,0.046875 0,0.0625 -0.0625,0.25 L 1.5625,-0.78125 c -0.09375,0.390625 -0.109375,0.46875 -0.90625,0.46875 -0.171875,0 -0.28125,0 -0.28125,0.1875 C 0.375,0 0.46875,0 0.65625,0 h 5.171875 c 0.234375,0 0.25,-0.015625 0.3125,-0.171875 z m 0,0"
             id="path58" />
        </g>
      </g>
      <g
         fill="#000000"
         fill-opacity="1"
         id="g36"
         transform="translate(-0.375,0.20375)">
        <g
           id="use34"
           transform="translate(7.9289999,4.7649999)">
          <path
             d="m 1.4375,-0.84375 c -0.25,0.390625 -0.46875,0.5625 -0.875,0.59375 -0.078125,0 -0.171875,0 -0.171875,0.140625 C 0.390625,-0.03125 0.453125,0 0.5,0 0.671875,0 0.90625,-0.03125 1.09375,-0.03125 1.3125,-0.03125 1.609375,0 1.8125,0 1.84375,0 1.953125,0 1.953125,-0.15625 1.953125,-0.25 1.859375,-0.25 1.828125,-0.25 1.78125,-0.265625 1.53125,-0.265625 1.53125,-0.453125 c 0,-0.09375 0.0625,-0.203125 0.09375,-0.265625 l 0.5625,-0.875 h 2 L 4.34375,-0.4375 C 4.328125,-0.359375 4.28125,-0.25 3.875,-0.25 c -0.09375,0 -0.1875,0 -0.1875,0.15625 C 3.6875,-0.0625 3.703125,0 3.796875,0 4,0 4.5,-0.03125 4.703125,-0.03125 c 0.125,0 0.28125,0.015625 0.40625,0.015625 C 5.234375,-0.015625 5.375,0 5.5,0 5.59375,0 5.640625,-0.0625 5.640625,-0.140625 5.640625,-0.25 5.5625,-0.25 5.453125,-0.25 c -0.40625,0 -0.421875,-0.0625 -0.4375,-0.21875 l -0.625,-4.3125 C 4.375,-4.921875 4.359375,-4.96875 4.234375,-4.96875 4.09375,-4.96875 4.0625,-4.90625 4,-4.8125 Z m 0.921875,-1 L 3.8125,-4.125 4.140625,-1.84375 Z m 0,0"
             id="path62" />
        </g>
      </g>
      <g
         fill="#000000"
         fill-opacity="1"
         id="g40"
         transform="translate(-0.375,0.20375)">
        <g
           id="use38"
           transform="translate(17.186001,8.3800001)">
          <path
             d="m 6.84375,-3.265625 c 0.15625,0 0.34375,0 0.34375,-0.1875 C 7.1875,-3.65625 7,-3.65625 6.859375,-3.65625 h -5.96875 c -0.140625,0 -0.328125,0 -0.328125,0.203125 0,0.1875 0.1875,0.1875 0.328125,0.1875 z m 0.015625,1.9375 c 0.140625,0 0.328125,0 0.328125,-0.203125 0,-0.1875 -0.1875,-0.1875 -0.34375,-0.1875 H 0.890625 c -0.140625,0 -0.328125,0 -0.328125,0.1875 0,0.203125 0.1875,0.203125 0.328125,0.203125 z m 0,0"
             id="path66" />
        </g>
      </g>
      <g
         fill="#000000"
         fill-opacity="1"
         id="g44"
         transform="translate(-0.375,0.20375)">
        <g
           id="use42"
           transform="translate(27.702,8.3800001)">
          <path
             d="m 5.15625,-3.71875 c 0.140625,0 0.5,0 0.5,-0.34375 0,-0.234375 -0.21875,-0.234375 -0.390625,-0.234375 h -2.28125 c -1.5,0 -2.609375,1.640625 -2.609375,2.828125 0,0.875 0.59375,1.578125 1.5,1.578125 1.171875,0 2.5,-1.203125 2.5,-2.734375 0,-0.171875 0,-0.65625 -0.3125,-1.09375 z M 1.890625,-0.109375 C 1.390625,-0.109375 1,-0.46875 1,-1.1875 c 0,-0.296875 0.109375,-1.109375 0.46875,-1.703125 0.421875,-0.6875 1.015625,-0.828125 1.359375,-0.828125 0.828125,0 0.90625,0.65625 0.90625,0.96875 0,0.46875 -0.203125,1.28125 -0.53125,1.796875 -0.390625,0.578125 -0.9375,0.84375 -1.3125,0.84375 z m 0,0"
             id="path2422" />
        </g>
      </g>
      <g
         clip-path="url(#clipPath4061)"
         id="g52"
         transform="translate(-0.375,0.20375)">
        <g
           fill="#000000"
           fill-opacity="1"
           id="g50">
          <g
             id="use46"
             transform="translate(33.753284,8.3800001)">
            <path
               d="m 4.375,-7.09375 c 0.046875,-0.140625 0.046875,-0.171875 0.046875,-0.1875 0,-0.109375 -0.078125,-0.203125 -0.1875,-0.203125 -0.078125,0 -0.140625,0.03125 -0.171875,0.09375 l -3.46875,9.5 C 0.546875,2.25 0.546875,2.28125 0.546875,2.296875 0.546875,2.40625 0.640625,2.5 0.75,2.5 0.875,2.5 0.90625,2.421875 0.96875,2.25 Z m 0,0"
               id="path74" />
          </g>
          <g
             id="use48"
             transform="translate(38.734585,8.3800001)">
            <path
               d="M 1.40625,-2.265625 C 1.734375,-2.125 2.03125,-2.125 2.265625,-2.125 c 0.25,0 0.8125,0 0.8125,-0.3125 0,-0.234375 -0.359375,-0.265625 -0.734375,-0.265625 -0.203125,0 -0.5625,0.015625 -0.921875,0.1875 C 1.1875,-2.625 1.015625,-2.828125 1.015625,-3.09375 c 0,-0.609375 0.984375,-0.96875 1.875,-0.96875 0.15625,0 0.515625,0 0.921875,0.28125 0.109375,0.078125 0.125,0.109375 0.1875,0.109375 0.140625,0 0.28125,-0.140625 0.28125,-0.28125 0,-0.1875 -0.609375,-0.5625 -1.296875,-0.5625 -1.140625,0 -2.21875,0.671875 -2.21875,1.421875 0,0.4375 0.359375,0.6875 0.40625,0.71875 -0.59375,0.328125 -0.90625,0.875 -0.90625,1.34375 0,0.640625 0.5625,1.25 1.625,1.25 1.3125,0 1.875,-0.875 1.875,-1.03125 0,-0.0625 -0.0625,-0.09375 -0.109375,-0.09375 -0.0625,0 -0.09375,0.03125 -0.109375,0.0625 -0.140625,0.234375 -0.375,0.609375 -1.578125,0.609375 -0.609375,0 -1.453125,-0.15625 -1.453125,-0.859375 0,-0.34375 0.28125,-0.875 0.890625,-1.171875 z m 0.328125,-0.125 c 0.234375,-0.078125 0.4375,-0.09375 0.609375,-0.09375 0.25,0 0.28125,0.015625 0.46875,0.0625 -0.15625,0.0625 -0.171875,0.078125 -0.546875,0.078125 -0.21875,0 -0.34375,0 -0.53125,-0.046875 z m 0,0"
               id="path78" />
          </g>
        </g>
      </g>
    </g>
  </g>
  <path
     style="fill:none;stroke:#ff0000;stroke-width:1;stroke-linecap:butt;stroke-linejoin:miter;stroke-dasharray:none;stroke-dashoffset:0;stroke-opacity:1"
     d="m 78.96964,178.22826 20.75069,-17.22863 17.35174,-12.96686 17.84646,-12.82405 17.86099,-12.81986"
     id="path3384"
     sodipodi:nodetypes="ccccc" />
  <path
     style="fill:none;stroke:#0000ff;stroke-width:1;stroke-linecap:butt;stroke-linejoin:miter;stroke-dasharray:none;stroke-dashoffset:0;stroke-opacity:1"
     d="m 76.37408,177.47899 21.15117,-17.11303 17.73545,-12.85609 18.24274,-12.70965 18.53668,-12.6248"
     id="path3386"
     sodipodi:nodetypes="ccccc" />
  <path
     style="fill:none;stroke:#0000ff;stroke-width:1;stroke-linecap:butt;stroke-linejoin:miter;stroke-dasharray:4, 4;stroke-dashoffset:0;stroke-opacity:1"
     d="m 71.55481,176.08779 20.90142,-17.18513 17.44584,-12.93969 17.74866,-12.85229 18.86939,-12.52875"
     id="path3388"
     sodipodi:nodetypes="ccccc" />
  <path
     d="m 278.28026,193.99891 -21.76015,-6.04184 -14.82566,-4.11643 -1.34412,-15.52321 -2.11059,-25.02263 -1.00322,-9.05651 -0.9007,-4.57378 -34.56378,-9.59683 v 0"
     clip-path="url(#p84322088f8)"
     style="fill:none;stroke:#0000ff;stroke-width:1;stroke-linecap:square;stroke-dasharray:none"
     id="path250"
     transform="translate(-126.43375,-46.270851)" />
  <path
     d="m 293.84783,176.34349 -3.40962,-0.9467 -30.50102,-8.46878 -0.82559,-7.75999 -2.5917,-37.74455 -0.95277,-11.2493 -1.03085,-8.29525 -37.19667,-10.327876 v 0"
     clip-path="url(#p84322088f8)"
     style="fill:none;stroke:#0000ff;stroke-width:1;stroke-linecap:square;stroke-dasharray:none"
     id="path270"
     transform="translate(-126.43375,-46.270851)" />
  <path
     d="m 309.42643,158.69126 -3.36393,-0.93401 -27.58863,-7.66015 -1.25022,-10.90736 -2.04457,-34.36207 -1.09231,-15.872892 -1.1329,-12.86933 -40.03853,-11.11693 v 0"
     clip-path="url(#p84322088f8)"
     style="fill:none;stroke:#0000ff;stroke-width:1;stroke-linecap:square;stroke-dasharray:none"
     id="path290"
     transform="translate(-126.43375,-46.270851)" />
  <path
     d="m 236.33582,129.66451 7.17,1.9928 0.36287,0.51299 0.36987,0.94748 0.38026,1.66788 0.38258,2.44819 0.78493,7.1814 1.07548,12.73859 1.12589,13.68238 0.62583,6.54027 0.59203,4.87531 0.50105,2.77521 0.37729,1.14301 28.12446,7.80892 v 0"
     clip-path="url(#p84322088f8)"
     style="fill:none;stroke:#ff0000;stroke-width:1;stroke-linecap:square;stroke-dasharray:none"
     id="path267"
     sodipodi:nodetypes="ccccccccccccccc"
     transform="translate(-126.43375,-46.270851)" />
  <path
     d="m 254.07879,101.75189 7.27349,2.02329 0.38696,0.84719 0.40248,1.51726 0.41447,2.60661 0.81242,8.11836 1.18398,16.49355 1.30279,18.91388 0.92718,10.62002 0.64369,4.70081 0.26235,1.07277 0.29329,0.49603 25.75498,7.15102 v 0"
     clip-path="url(#p84322088f8)"
     style="fill:none;stroke:#ff0000;stroke-width:1;stroke-linecap:square;stroke-dasharray:none"
     id="path287"
     sodipodi:nodetypes="cccccccccccccc"
     transform="translate(-126.43375,-46.270851)" />
  <path
     d="m 272.95387,76.085448 6.2594,1.739901 0.40283,0.722971 0.40381,1.474713 0.40303,2.580498 0.39748,3.696729 0.77215,10.009756 1.42828,23.618834 1.16694,18.23507 0.80897,9.25889 0.3928,2.92721 0.38633,1.77453 23.50067,6.5251 v 0"
     clip-path="url(#p84322088f8)"
     style="fill:none;stroke:#ff0000;stroke-width:1;stroke-linecap:square;stroke-dasharray:none"
     id="path307"
     sodipodi:nodetypes="cccccccccccccc"
     transform="translate(-126.43375,-46.270851)" />
  <path
     d="m 248.27899,228.0866 -5.71834,-1.58773 -33.72154,-9.36299 -0.96454,-0.52079 -3.57206,-3.84664 -0.73098,-0.5872 -0.7637,-0.41242 -31.08119,-8.62988 v 0"
     clip-path="url(#p84322088f8)"
     style="fill:none;stroke:#0000ff;stroke-width:1;stroke-linecap:square;stroke-dasharray:none"
     id="path187"
     transform="translate(-126.43375,-46.270851)" />
  <path
     d="m 202.80783,211.76883 8.3292,2.38001 0.77386,0.46485 1.19605,1.10696 2.91631,3.06133 1.07818,0.64798 31.08734,8.63159 v 0"
     clip-path="url(#p84322088f8)"
     style="fill:none;stroke:#ff0000;stroke-width:1;stroke-linecap:square;stroke-dasharray:none"
     id="path207"
     sodipodi:nodetypes="cccccccc"
     transform="translate(-126.43375,-46.270851)" />
  <use
     xlink:href="#m4bac54831c"
     x="248.27899"
     y="228.08659"
     style="fill:#ff0000;stroke:#ff0000;stroke-linejoin:bevel"
     id="use195"
     clip-path="url(#p84322088f8)"
     transform="translate(-126.43375,-46.270851)" />
  <use
     xlink:href="#m4bac54831c"
     x="262.71268"
     y="211.65433"
     style="fill:#ff0000;stroke:#ff0000;stroke-linejoin:bevel"
     id="use235"
     clip-path="url(#p84322088f8)"
     transform="translate(-126.43375,-46.270851)" />
  <use
     xlink:href="#m4bac54831c"
     x="278.28027"
     y="193.9989"
     style="fill:#ff0000;stroke:#ff0000;stroke-linejoin:bevel"
     id="use255"
     clip-path="url(#p84322088f8)"
     transform="translate(-126.43375,-46.270851)" />
  <use
     xlink:href="#m4bac54831c"
     x="293.84784"
     y="176.34349"
     style="fill:#ff0000;stroke:#ff0000;stroke-linejoin:bevel"
     id="use275"
     clip-path="url(#p84322088f8)"
     transform="translate(-126.43375,-46.270851)" />
  <use
     xlink:href="#m4bac54831c"
     x="309.42642"
     y="158.69127"
     style="fill:#ff0000;stroke:#ff0000;stroke-linejoin:bevel"
     id="use295"
     clip-path="url(#p84322088f8)"
     transform="translate(-126.43375,-46.270851)" />
  <text
     id="text4126"
     transform="rotate(16.102107)"
     x="73.633224"
     y="167.84401"><tspan
       style="font-style:normal;font-variant:normal;font-weight:normal;font-stretch:normal;font-size:10px;line-height:normal;font-family:'Times New Roman'"
       x="73.633224 79.741623 84.180099 91.95842 96.95842 101.3969 104.72697 109.16545 111.94377 116.94377 120.27385 124.71251"
       y="167.26588"
       id="tspan4122">Temperature, °C</tspan><tspan
       style="font-style:normal;font-variant:normal;font-weight:normal;font-stretch:normal;font-size:10px;line-height:normal;font-family:'Times New Roman', serif;-inkscape-font-specification:'Times New Roman, serif'"
       x="137.19136"
       y="167.26588"
       id="tspan4124" /></text>
  <text
     id="text4132"
     transform="rotate(16.102107)"
     x="114.33864"
     y="157.60173"
     style="font-size:8px"><tspan
       style="font-style:italic;font-variant:normal;font-weight:normal;font-stretch:normal;font-size:8px;line-height:normal;font-family:'Times New Roman';-inkscape-font-specification:'Times New Roman,  Italic'"
       id="tspan4128">M<tspan
   style="font-size:65%;baseline-shift:sub"
   id="tspan4138">s</tspan></tspan></text>
  <text
     id="text4144"
     transform="rotate(16.102107)"
     x="103.85608"
     y="156.76422"
     style="font-size:8px"><tspan
       style="font-style:italic;font-variant:normal;font-weight:normal;font-stretch:normal;font-size:8px;line-height:normal;font-family:'Times New Roman';-inkscape-font-specification:'Times New Roman,  Italic'"
       id="tspan4142">M<tspan
   style="font-size:65%;baseline-shift:sub"
   id="tspan4140">f</tspan></tspan></text>
  <text
     id="text4283"
     transform="rotate(16.102107)"
     x="133.38777"
     y="158.50632"
     style="font-size:8px"><tspan
       style="font-style:italic;font-variant:normal;font-weight:normal;font-stretch:normal;font-size:8px;line-height:normal;font-family:'Times New Roman';-inkscape-font-specification:'Times New Roman,  Italic'"
       id="tspan4281">A<tspan
   style="font-size:65%;baseline-shift:sub"
   id="tspan4279">f</tspan></tspan></text>
  <text
     id="text4289"
     transform="rotate(16.102107)"
     x="125.34962"
     y="157.70418"
     style="font-size:8px"><tspan
       style="font-style:italic;font-variant:normal;font-weight:normal;font-stretch:normal;font-size:8px;line-height:normal;font-family:'Times New Roman';-inkscape-font-specification:'Times New Roman,  Italic'"
       id="tspan4287">A<tspan
   style="font-size:65%;baseline-shift:sub"
   id="tspan4285">s</tspan></tspan></text>
  <text
     id="text4295"
     transform="rotate(16.102107)"
     x="160.6805"
     y="117.84142"
     style="font-size:8px"><tspan
       style="font-style:italic;font-variant:normal;font-weight:normal;font-stretch:normal;font-size:8px;line-height:normal;font-family:'Times New Roman';-inkscape-font-specification:'Times New Roman,  Italic'"
       id="tspan4293">C<tspan
   style="font-size:65%;baseline-shift:super"
   id="tspan4297">A</tspan></tspan></text>
  <text
     id="text4303"
     transform="rotate(16.102107)"
     x="115.30972"
     y="106.5142"
     style="font-size:8px"><tspan
       style="font-style:italic;font-variant:normal;font-weight:normal;font-stretch:normal;font-size:8px;line-height:normal;font-family:'Times New Roman';-inkscape-font-specification:'Times New Roman,  Italic'"
       id="tspan4301">C<tspan
   style="font-size:65%;baseline-shift:super"
   id="tspan4299">M</tspan></tspan></text>
  <path
     style="fill:none;stroke:#000000;stroke-width:0.75px;stroke-linecap:butt;stroke-linejoin:miter;stroke-dasharray:1.5, 0.75;stroke-dashoffset:0;stroke-opacity:1"
     d="m 111.67206,158.55122 2.44587,0.70606 16.65197,-14.42103"
     id="path4313" />
  <path
     style="fill:none;stroke:#000000;stroke-width:0.75px;stroke-linecap:butt;stroke-linejoin:miter;stroke-dasharray:1.5, 0.75;stroke-dashoffset:0;stroke-opacity:1"
     d="m 98.18088,154.65665 2.44587,0.70606 17.29,-15.20339"
     id="path4315"
     sodipodi:nodetypes="ccc" />
  <path
     style="fill:none;stroke:#000000;stroke-width:0.5;stroke-linecap:butt;stroke-linejoin:miter;stroke-dasharray:none;stroke-opacity:1;marker-end:url(#Arrow1L)"
     d="m 90.63405,136.16983 16.80493,7.28457"
     id="path4317"
     sodipodi:nodetypes="cc" />
  <path
     d="m 262.71269,211.65432 -12.59898,-3.49818 -26.15471,-7.26201 -1.5901,-12.62196 -1.85773,-15.0454 -0.90589,-5.78605 -0.7153,-3.74106 -32.68551,-9.07532 v 0"
     clip-path="url(#p84322088f8)"
     style="fill:none;stroke:#0000ff;stroke-width:1;stroke-linecap:square;stroke-dasharray:none"
     id="path230"
     transform="translate(-126.43375,-46.270851)" />
  <path
     d="m 218.88998,163.69966 7.2641,2.01951 0.39009,0.57912 0.39756,0.93984 0.38662,1.44449 0.74175,4.20159 1.02964,8.01012 1.95002,15.74409 0.63994,3.74408 0.566,2.18368 0.46328,0.76021 29.87711,8.29555 v 0"
     clip-path="url(#p84322088f8)"
     style="fill:none;stroke:#ff0000;stroke-width:1;stroke-linecap:square;stroke-dasharray:none"
     id="path247"
     sodipodi:nodetypes="ccccccccccccc"
     transform="translate(-126.43375,-46.270851)" />
  <path
     style="fill:none;stroke:#ff0000;stroke-width:1;stroke-linecap:butt;stroke-linejoin:miter;stroke-dasharray:4, 4;stroke-dashoffset:0;stroke-opacity:1"
     d="m 85.32549,180.06304 20.49646,-17.30203 17.8282,-12.82932 17.89799,-12.80917 17.794,-12.83919"
     id="path3321"
     sodipodi:nodetypes="ccccc" />
  <path
     d="M 0.49524962,155.57466 124.07941,191.25033"
     style="fill:none;stroke:#000000;stroke-width:0.8;stroke-linecap:square"
     id="path60" />
</svg>
