<?xml version="1.0" encoding="UTF-8" standalone="no"?>
<!-- Created with Inkscape (http://www.inkscape.org/) -->

<svg
   width="240.18021mm"
   height="182.98976mm"
   viewBox="0 0 240.18021 182.98976"
   version="1.1"
   id="svg1"
   xml:space="preserve"
   inkscape:version="1.3 (0e150ed6c4, 2023-07-21)"
   sodipodi:docname="SMAREACT.svg"
   xmlns:inkscape="http://www.inkscape.org/namespaces/inkscape"
   xmlns:sodipodi="http://sodipodi.sourceforge.net/DTD/sodipodi-0.dtd"
   xmlns:xlink="http://www.w3.org/1999/xlink"
   xmlns="http://www.w3.org/2000/svg"
   xmlns:svg="http://www.w3.org/2000/svg"><sodipodi:namedview
     id="namedview1"
     pagecolor="#ffffff"
     bordercolor="#111111"
     borderopacity="1"
     inkscape:showpageshadow="0"
     inkscape:pageopacity="0"
     inkscape:pagecheckerboard="1"
     inkscape:deskcolor="#d1d1d1"
     inkscape:document-units="mm"
     inkscape:zoom="0.80756793"
     inkscape:cx="508.31637"
     inkscape:cy="461.26151"
     inkscape:window-width="1600"
     inkscape:window-height="837"
     inkscape:window-x="-8"
     inkscape:window-y="-8"
     inkscape:window-maximized="1"
     inkscape:current-layer="layer1" /><defs
     id="defs1"><pattern
       inkscape:collect="always"
       xlink:href="#Strips1_2"
       preserveAspectRatio="xMidYMid"
       id="pattern18"
       patternTransform="matrix(2.1213203,2.1213203,-2.1213203,2.1213203,0,0)"
       x="0"
       y="0" /><pattern
       inkscape:collect="always"
       xlink:href="#Strips1_2"
       preserveAspectRatio="xMidYMid"
       id="pattern17"
       patternTransform="matrix(0.53033009,0.53033009,-0.53033009,0.53033009,0,0)"
       x="0"
       y="0" /><pattern
       inkscape:collect="always"
       xlink:href="#Strips1_2"
       preserveAspectRatio="xMidYMid"
       id="pattern16"
       patternTransform="matrix(0.53033009,0.53033009,-0.53033009,0.53033009,0,0)"
       x="0"
       y="0" /><pattern
       inkscape:collect="always"
       xlink:href="#Strips1_2"
       preserveAspectRatio="xMidYMid"
       id="pattern15"
       patternTransform="matrix(0.53033009,0.53033009,-0.53033009,0.53033009,0,0)"
       x="0"
       y="0" /><pattern
       inkscape:collect="always"
       xlink:href="#Strips1_2"
       preserveAspectRatio="xMidYMid"
       id="pattern14"
       patternTransform="matrix(0.53033009,0.53033009,-0.53033009,0.53033009,0,0)"
       x="0"
       y="0" /><pattern
       inkscape:collect="always"
       patternUnits="userSpaceOnUse"
       width="3"
       height="1"
       patternTransform="translate(0,0) scale(2,2)"
       preserveAspectRatio="xMidYMid"
       id="Strips1_2"
       style="fill:#7e7e7e"
       inkscape:stockid="Stripes 03 (1:2)"
       inkscape:isstock="true"
       inkscape:label="Stripes 03 (1:2)">&#10;      <rect
   style="stroke:none"
   x="0"
   y="-0.5"
   width="1"
   height="2"
   id="rect146" />&#10;    </pattern></defs><g
     inkscape:label="Layer 1"
     inkscape:groupmode="layer"
     id="layer1"
     transform="translate(6.8790655,5.5600624)"><rect
       style="fill:#ffffff;fill-rule:evenodd;stroke:none;stroke-width:1;stroke-linecap:round;stroke-dasharray:none;fill-opacity:1"
       id="rect19"
       width="35.068535"
       height="22.540453"
       x="41.905739"
       y="141.31532"
       inkscape:export-filename="..\..\GitHub\SMAREACTcleaned\preprocessor\media\rectangle.png"
       inkscape:export-xdpi="500"
       inkscape:export-ydpi="500" /><rect
       style="fill:#ffffff;fill-rule:evenodd;stroke:none;stroke-width:1;stroke-linecap:round;stroke-dasharray:none;fill-opacity:1"
       id="rect20"
       width="34.997681"
       height="34.997681"
       x="90.261398"
       y="135.08672"
       inkscape:export-filename="..\..\GitHub\SMAREACTcleaned\preprocessor\media\cintraquad.png"
       inkscape:export-xdpi="500"
       inkscape:export-ydpi="500" /><ellipse
       style="fill:#ffffff;fill-rule:evenodd;stroke:none;stroke-width:1;stroke-linecap:round;stroke-dasharray:none;fill-opacity:1"
       id="ellipse20"
       cx="158.30261"
       cy="152.57767"
       rx="17.490948"
       ry="17.490944"
       inkscape:export-filename="..\..\GitHub\SMAREACTcleaned\preprocessor\media\circle.png"
       inkscape:export-xdpi="500"
       inkscape:export-ydpi="500" /><path
       sodipodi:type="star"
       style="fill:#ffffff;fill-opacity:1;fill-rule:evenodd;stroke:none;stroke-width:4.77284589;stroke-linecap:round;stroke-dasharray:none"
       id="path20"
       inkscape:flatsided="false"
       sodipodi:sides="5"
       sodipodi:cx="972.05444"
       sodipodi:cy="556.9447"
       sodipodi:r1="86.887871"
       sodipodi:r2="43.443935"
       sodipodi:arg1="0.77763186"
       sodipodi:arg2="1.4059504"
       inkscape:rounded="0"
       inkscape:randomized="0"
       d="m 1033.9687,617.9047 -54.78509,-18.105 -45.973,34.86668 0.28934,-57.69852 -47.36662,-32.94852 54.96396,-17.55464 16.69882,-55.22999 33.68025,46.84916 57.68704,-1.18549 -34.1484,46.509 z"
       transform="matrix(0.21037486,0,0,0.20866583,0.86999618,35.19864)"
       inkscape:transform-center-x="0.92693377"
       inkscape:transform-center-y="-0.83344736"
       inkscape:export-filename="..\..\GitHub\SMAREACTcleaned\preprocessor\media\custom.png"
       inkscape:export-xdpi="500"
       inkscape:export-ydpi="500" /><rect
       style="fill:#f9f9f9;fill-rule:evenodd;stroke:none;stroke-width:1;stroke-linecap:round;stroke-dasharray:none;fill-opacity:1"
       id="rect18"
       width="34.997681"
       height="34.997681"
       x="-6.3790655"
       y="135.26868"
       inkscape:export-filename="..\..\GitHub\SMAREACTcleaned\preprocessor\media\square.png"
       inkscape:export-xdpi="500"
       inkscape:export-ydpi="500" /><path
       style="fill:#f9f9f9"
       d="m 141.36892,102.33525 c -0.24704,-0.39972 0.0801,-0.64385 0.8627,-0.64385 1.09941,0 1.76021,-1.1632 1.88164,-3.312233 0.0572,-1.012057 0.0226,-2.050048 -0.0769,-2.306646 -0.16959,-0.4375 -0.2042,-0.434804 -0.55609,0.04331 -0.54608,0.74197 -0.79677,0.289908 -0.27816,-0.501594 0.49261,-0.75181 1.34511,-0.886587 1.58893,-0.251201 0.0883,0.230183 0.16526,1.152917 0.17096,2.050521 l 0.0104,1.632006 0.40691,-0.926042 c 0.22381,-0.509323 0.48874,-1.392935 0.58873,-1.963584 0.20721,-1.182477 0.83573,-1.628137 0.83573,-0.592584 0,0.977241 -2.05099,4.805927 -3.21949,6.009987 -0.99249,1.0227 -1.86807,1.32383 -2.21535,0.76191 z m -40.60266,-2.873412 c 0,-0.13485 0.19354,-0.283679 0.43008,-0.330729 0.29399,-0.05848 0.75243,-1.090255 1.44873,-3.260546 0.93579,-2.91675 0.98278,-3.201901 0.57768,-3.505729 -0.36888,-0.276666 -0.18401,-0.328998 1.13096,-0.320136 1.49715,0.01009 1.53954,0.0282 0.89126,0.38073 -0.55162,0.299964 -0.84426,0.902924 -1.54354,3.180368 -0.47458,1.545627 -0.79124,2.996888 -0.7037,3.225025 0.24442,0.636952 2.4995,0.311412 3.1159,-0.449806 0.42727,-0.527656 0.47264,-0.536668 0.46505,-0.09237 -0.0202,1.181688 -0.56452,1.418374 -3.2619,1.418374 -1.40279,0 -2.55052,-0.110332 -2.55052,-0.245183 z m 6.27005,-0.110683 c -0.46278,-1.205991 2.9064,-5.107954 3.71356,-4.300796 0.0848,0.08478 0.31682,0.01916 0.51562,-0.145836 0.70531,-0.585353 0.68884,0.06126 -0.0482,1.892082 -0.75318,1.870945 -0.75318,2.47717 0,1.852083 0.22531,-0.186995 0.47259,-0.277066 0.54949,-0.200159 0.23101,0.231003 -1.24226,1.258492 -1.80448,1.258492 -0.4319,0 -0.49194,-0.120437 -0.34732,-0.696652 l 0.17485,-0.696652 -0.82793,0.696652 c -0.9015,0.758569 -1.71035,0.901715 -1.9256,0.340786 z m 2.26267,-1.165488 c 1.00765,-1.056095 1.5809,-2.247128 1.19604,-2.484987 -0.4964,-0.306788 -1.22137,0.243428 -1.7904,1.358814 -0.92924,1.821473 -0.62289,2.401946 0.59436,1.126173 z m 3.54992,1.344965 c -0.41019,-0.410189 -0.11097,-1.98101 0.86528,-4.54241 0.57293,-1.503185 0.98291,-2.886216 0.91108,-3.073402 -0.12018,-0.313178 0.92166,-0.79866 1.17349,-0.54683 0.0587,0.05866 -0.26356,1.076137 -0.71605,2.261069 -0.45248,1.184933 -0.82269,2.224536 -0.82269,2.31023 0,0.08569 0.28525,-0.112177 0.6339,-0.439714 0.42447,-0.398773 0.88339,-0.566982 1.38906,-0.509141 1.59377,0.182303 0.84528,2.730941 -1.20849,4.114979 -0.87186,0.587543 -1.87214,0.778658 -2.22558,0.425219 z m 2.03932,-1.053377 c 0.73466,-0.792288 1.65062,-2.665013 1.4175,-2.898131 -0.58528,-0.585282 -2.83946,1.892694 -2.83946,3.121364 0,0.691246 0.67181,0.58578 1.42196,-0.223233 z m 3.12887,0.912266 c -0.39951,-0.399508 -0.41021,-1.653496 -0.0206,-2.411873 1.18155,-2.299804 3.67184,-2.84309 3.67184,-0.801055 0,2.229465 -2.46533,4.398847 -3.65125,3.212928 z m 2.12034,-1.168732 c 0.62891,-1.080055 0.75889,-2.879393 0.20799,-2.879393 -0.4369,0 -1.85208,2.577425 -1.85208,3.373138 0,0.791424 1.08558,0.465407 1.64409,-0.493745 z m 2.32466,1.400283 c 0,-0.04727 0.29056,-0.940241 0.6457,-1.984375 0.62307,-1.831924 0.60622,-2.250763 -0.0636,-1.580926 -0.24694,0.246945 -0.3175,0.229306 -0.3175,-0.07937 0,-0.548052 0.53512,-1.031875 1.14128,-1.031875 0.41225,0 0.4846,0.147707 0.38956,0.795281 l -0.11672,0.795281 0.70226,-0.841197 c 0.47884,-0.573571 0.84313,-0.787143 1.14503,-0.671293 0.50525,0.193884 0.54467,0.415799 0.17413,0.980262 -0.23111,0.352045 -0.28924,0.35219 -0.51467,0.0013 -0.21824,-0.339703 -0.31003,-0.321015 -0.64978,0.132292 -0.2176,0.290333 -0.72423,1.212487 -1.12585,2.049232 -0.40162,0.836745 -0.88313,1.521354 -1.07002,1.521354 -0.18689,0 -0.3398,-0.03868 -0.3398,-0.08595 z m 3.175,-0.453758 c 0,-1.486799 2.06776,-3.985554 3.34942,-4.047562 0.41339,-0.02 0.82715,-0.141651 0.91946,-0.270337 0.0923,-0.128686 0.28875,-0.189697 0.43654,-0.13558 0.15644,0.05729 -0.0562,0.913893 -0.50895,2.05034 -0.79521,1.996029 -0.82002,2.485868 -0.0954,1.884513 0.22532,-0.186995 0.47259,-0.277066 0.5495,-0.200159 0.22621,0.226213 -1.27133,1.285742 -1.69949,1.202411 -0.61786,-0.120251 -0.53273,-1.559496 0.15203,-2.570154 0.61595,-0.909099 0.66631,-1.364869 0.16914,-1.530595 -0.61257,-0.204189 -2.21389,1.931785 -2.21389,2.953066 0,0.460034 0.41116,0.550432 0.66146,0.145431 0.19382,-0.313602 0.66146,-0.353933 0.66146,-0.05705 0,0.290578 -1.44868,1.115379 -1.95905,1.115379 -0.24856,0 -0.4222,-0.221969 -0.4222,-0.539707 z m 5.49101,0.386272 c -0.0844,-0.08439 0.1268,-0.977358 0.46931,-1.984375 0.50406,-1.482014 0.55011,-1.83094 0.24163,-1.83094 -0.20962,0 -0.38112,-0.119062 -0.38112,-0.264583 0,-0.145521 0.17585,-0.264583 0.39078,-0.264583 0.21493,0 0.58581,-0.297657 0.82418,-0.661459 0.23837,-0.363802 0.54104,-0.661458 0.6726,-0.661458 0.13155,0 0.16448,0.297656 0.0732,0.661458 -0.14601,0.58173 -0.081,0.661459 0.53974,0.661459 0.40313,0 0.63564,0.113452 0.54223,0.264583 -0.0899,0.145521 -0.4382,0.264583 -0.77393,0.264583 -0.49227,0 -0.7136,0.268832 -1.14358,1.389063 -0.29324,0.763984 -0.4915,1.434956 -0.44057,1.491048 0.0509,0.05609 0.39398,-0.09548 0.76232,-0.336828 0.9399,-0.615842 0.83637,-0.08472 -0.14433,0.740489 -0.79496,0.668913 -1.3231,0.840883 -1.63244,0.531543 z m 3.19565,-0.500234 c -0.23595,-0.51784 -0.20296,-0.902101 0.15876,-1.849238 0.53504,-1.400984 1.50705,-2.259593 2.55804,-2.259593 1.03156,0 1.40118,0.745484 1.03811,2.093797 -0.61239,2.274245 -3.0426,3.578392 -3.75491,2.015034 z m 2.57997,-1.423792 c 0.42094,-1.007432 0.48974,-2.05375 0.14891,-2.264394 -0.71946,-0.44465 -2.44941,3.147988 -1.81927,3.778129 0.38925,0.389243 1.17142,-0.319583 1.67036,-1.513735 z m 2.63919,0.180711 c 0.67214,-1.976176 0.6702,-2.376241 -0.009,-1.812723 -0.59665,0.495176 -0.49019,-0.0986 0.11604,-0.647234 0.69005,-0.62448 1.4255,-0.348122 1.20501,0.4528 -0.14818,0.538291 -0.10901,0.525486 0.4007,-0.130989 0.66425,-0.855496 1.57915,-0.97951 1.57915,-0.214052 0,0.631532 -0.51587,0.994405 -0.78791,0.554234 -0.24491,-0.396267 -1.1089,0.74917 -1.88004,2.492451 -0.2925,0.661245 -0.69774,1.202263 -0.90055,1.202263 -0.28955,0 -0.23019,-0.407309 0.2764,-1.89675 z m -61.998155,-17.61627 0.0705,-7.077604 1.13242,-0.08175 1.13242,-0.08175 0.87104,1.93383 c 0.47907,1.063607 1.3387,3.093027 1.91028,4.509822 0.90636,2.24658 1.43613,3.116199 1.43613,2.357396 0,-0.124292 0.84768,-2.148355 1.88373,-4.497916 l 1.88374,-4.27193 h 1.15897 1.15897 v 7.14375 7.14375 h -1.05208 -1.05209 l -0.0724,-4.563717 -0.0724,-4.563716 -1.16275,2.645487 c -0.63951,1.455018 -1.56701,3.534005 -2.0611,4.619971 l -0.89836,1.974483 -1.72588,-3.958858 c -0.94924,-2.177372 -1.88726,-4.316046 -2.0845,-4.752608 -0.31893,-0.705888 -0.36101,-0.273898 -0.38021,3.902604 l -0.0216,4.696354 h -1.06265 -1.06266 z m 18.849489,0.132292 c 1.64407,-3.819922 3.08222,-6.945313 3.19588,-6.945313 0.15318,0 6.183336,13.4452 6.200266,13.824479 0.002,0.03638 -0.51475,0.06615 -1.14749,0.06615 -1.08625,0 -1.17707,-0.05905 -1.62768,-1.058333 l -0.47725,-1.058334 h -2.962336 -2.96234 l -0.47724,1.058334 c -0.4484,0.994363 -0.54536,1.058333 -1.60414,1.058333 h -1.12689 z m 5.165766,2.612609 c 0,-0.05465 -0.31065,-0.798794 -0.69033,-1.653646 -0.37968,-0.854852 -0.79973,-1.838679 -0.933436,-2.186283 -0.13372,-0.347604 -0.29237,-0.582761 -0.35256,-0.522572 -0.0602,0.06019 -0.52859,1.088734 -1.04089,2.285653 l -0.93146,2.176218 h 1.97434 c 1.085876,0 1.974336,-0.04472 1.974336,-0.09937 z m 7.14375,-2.811047 v -7.14375 h 4.23333 4.23333 v 1.058334 1.058333 h -3.175 -3.175 v 2.116666 2.116667 h 2.51355 2.51354 v 0.926042 0.926041 h -2.51354 -2.51355 v 2.116667 2.116667 h 3.175 3.175 v 0.926041 0.926042 h -4.23333 -4.23333 z m 13.36146,6.64614 c -0.58209,-0.267294 -1.28239,-0.737878 -1.55623,-1.045743 -0.46948,-0.527814 -0.47269,-0.598221 -0.0562,-1.233869 l 0.4417,-0.674114 0.9067,0.691573 c 1.29353,0.986625 3.67979,1.192529 4.67548,0.403434 1.53008,-1.212603 1.11361,-3.209023 -0.77236,-3.702528 -0.5463,-0.142949 -1.57009,-0.404628 -2.27509,-0.58151 -1.45893,-0.366035 -2.95527,-1.618942 -3.22713,-2.702123 -0.47184,-1.879977 0.8467,-4.067189 2.80569,-4.654118 1.34656,-0.40344 3.22026,-0.03289 4.2836,0.847146 0.69794,0.577624 0.69967,0.587889 0.24294,1.445894 l -0.46,0.864141 -0.90231,-0.665703 c -1.04922,-0.774087 -2.49551,-0.877874 -3.40047,-0.244019 -0.4899,0.343141 -0.58711,0.624942 -0.52189,1.512929 0.0938,1.27674 0.51327,1.558474 2.99057,2.008435 1.68092,0.305315 2.54328,0.80108 3.40797,1.959236 0.70533,0.944716 0.71159,2.956797 0.0129,4.15309 -1.10991,1.900434 -4.2847,2.67915 -6.59588,1.617849 z m 13.57549,-5.577016 0.0817,-6.07515 -2.33071,-0.07667 -2.3307,-0.07667 -0.0821,-0.992187 -0.0821,-0.992188 h 5.70452 5.70451 v 1.058334 1.058333 h -2.38125 -2.38125 v 6.085416 6.085417 l -0.99219,2.62e-4 -0.99219,2.62e-4 z m 9.04638,-1.069124 v -7.14375 h 2.38975 c 1.55842,0 2.73069,0.142454 3.36982,0.409503 3.17917,1.32834 4.07995,4.871534 1.92137,7.557606 l -0.82865,1.031141 1.20406,2.525327 c 0.66224,1.38893 1.20407,2.579012 1.20407,2.644625 0,0.06561 -0.47136,0.119298 -1.04747,0.119298 -1.04383,0 -1.05184,-0.008 -2.3151,-2.315104 l -1.26764,-2.315104 -1.25677,0.08064 -1.25677,0.08064 v 2.234461 2.234462 h -1.05834 -1.05833 z m 6.12475,-0.486923 c 1.08558,-1.214983 1.03596,-2.459448 -0.14517,-3.640577 -0.80887,-0.808869 -1.04899,-0.899583 -2.38125,-0.899583 h -1.48166 v 2.809925 2.809926 l 1.62683,-0.117675 c 1.42241,-0.102888 1.72162,-0.223766 2.38125,-0.962016 z m 10.07174,7.298153 c -0.47803,-0.153174 -1.41793,-0.761561 -2.08867,-1.35197 -3.83364,-3.374501 -3.12864,-9.492038 1.3703,-11.890733 1.49045,-0.794659 4.33784,-0.788355 5.85641,0.01297 2.54437,1.34262 3.89434,3.568408 3.90399,6.436776 0.0163,4.84597 -4.50883,8.245536 -9.04203,6.792961 z m 4.42927,-2.307323 c 1.23836,-0.631765 2.00349,-1.648006 2.42371,-3.21916 1.03992,-3.888153 -2.84151,-7.466058 -6.4595,-5.954366 -2.19958,0.919043 -3.4319,3.746886 -2.68814,6.16855 0.45603,1.48483 1.00944,2.212794 2.26334,2.97722 1.16989,0.713211 3.09352,0.72518 4.46059,0.02776 z M 91.092495,74.015786 c -0.10062,-0.162806 0.55517,-1.032992 1.48712,-1.973293 1.555269,-1.569219 1.646549,-1.727173 1.360669,-2.354597 -0.3703,-0.812722 -1.238409,-0.885846 -1.702089,-0.143374 -0.36938,0.591476 -0.99693,0.711809 -0.99693,0.191163 0,-0.185902 0.18534,-0.602621 0.41188,-0.926042 0.91959,-1.31291 3.292279,-0.315967 3.292279,1.383336 0,0.550021 -0.31354,1.028383 -1.19062,1.816515 -0.654839,0.58843 -1.190629,1.167501 -1.190629,1.286825 0,0.119324 0.53579,0.216953 1.190629,0.216953 0.88194,0 1.19062,0.102893 1.19062,0.396875 0,0.314659 -0.38044,0.396875 -1.836459,0.396875 -1.05096,0 -1.91346,-0.124571 -2.01647,-0.291236 z m -10.30227,-7.920333 c -1.60073,-1.451827 -2.94902,-2.754722 -2.99619,-2.89532 -0.0472,-0.140599 2.50863,-3.384301 5.67955,-7.208227 8.51665,-10.27052 17.759915,-21.432582 20.053725,-24.216654 1.10904,-1.346068 2.11846,-2.447396 2.24317,-2.447396 0.1872,0 12.38598,14.556323 16.67269,19.894867 0.66525,0.828479 1.26908,1.506386 1.34184,1.50646 0.0728,7.3e-5 2.09682,-2.393571 4.49791,-5.31921 2.4011,-2.92564 6.42516,-7.804544 8.94237,-10.842011 l 4.57674,-5.522667 1.91804,2.324093 c 1.05493,1.278251 4.87683,5.895968 8.4931,10.261593 3.61628,4.365625 6.96431,8.41375 7.44006,8.995833 0.47576,0.582083 2.95847,3.581665 5.51714,6.665738 2.55868,3.084072 4.65214,5.709864 4.65214,5.835093 0,0.219524 -5.66328,5.414141 -6.067,5.564923 -0.1091,0.04075 -2.74749,-2.806942 -5.86308,-6.328201 -3.11559,-3.521259 -5.78503,-6.531161 -5.93208,-6.688671 -0.14704,-0.15751 -1.57437,-1.774663 -3.17183,-3.593674 -3.32143,-3.782075 -4.38388,-4.971312 -5.8422,-6.539364 l -1.03736,-1.115406 -3.22739,4.025823 c -1.77507,2.214202 -4.67551,5.81176 -6.44542,7.994572 -1.76991,2.182813 -4.34774,5.367735 -5.72851,7.077604 -1.38077,1.70987 -2.60374,3.108854 -2.71771,3.108854 -0.11397,0 -1.43522,-1.518046 -2.93611,-3.373437 -3.85101,-4.760596 -7.7439,-9.56136 -11.79324,-14.543596 l -3.48753,-4.290993 -6.835166,7.720578 c -3.75934,4.246318 -8.605219,9.719374 -10.768629,12.162347 -2.1634,2.442972 -4.00887,4.438251 -4.10104,4.433952 -0.0922,-0.0043 -1.47726,-1.195675 -3.07799,-2.647503 z m 25.149905,-5.97891 c -4.48478,-5.413607 -4.9317,-6.04215 -4.65617,-6.548437 0.16763,-0.308023 1.18375,-1.512542 2.25805,-2.676709 l 1.95326,-2.116666 0.85024,1.017035 c 0.46763,0.559369 2.16541,2.642963 3.77284,4.630208 1.60744,1.987245 3.44097,4.250183 4.07451,5.02875 0.63355,0.778568 1.11619,1.510156 1.07254,1.625752 -0.13672,0.362125 -4.03983,5.028029 -4.20621,5.028251 -0.087,1.17e-4 -2.39054,-2.694566 -5.11906,-5.988184 z m 28.42821,3.57904 c -1.09141,-1.324913 -2.02345,-2.513609 -2.07121,-2.641547 -0.0478,-0.127937 0.8699,-1.395307 2.03925,-2.816376 1.16936,-1.421069 3.3311,-4.072044 4.80388,-5.891054 1.47278,-1.819011 2.77555,-3.342983 2.89504,-3.386605 0.24428,-0.08918 4.50387,4.643071 4.50387,5.003645 0,0.265545 -9.82259,12.141402 -10.04196,12.141081 -0.0795,-1.16e-4 -1.03746,-1.084231 -2.12887,-2.409144 z m -16.15828,-23.97115 c -10.48072,-12.674662 -10.59455,-12.819151 -10.34795,-13.13514 0.34274,-0.439188 14.3271,-17.3739039 15.20617,-18.4142979 0.40616,-0.480701 0.7743,-0.8292859 0.81809,-0.7746329 0.0438,0.05465 2.44292,2.9568688 5.33141,6.4493688 6.29824,7.615276 9.91896,12.010264 10.39936,12.623212 0.31408,0.400745 -0.32226,1.265993 -5.64268,7.672568 -3.29818,3.971488 -6.19772,7.459012 -6.44343,7.750053 -0.24571,0.291042 -1.14296,1.39237 -1.99389,2.447396 -0.85094,1.055026 -1.63145,1.918229 -1.73448,1.918229 -0.10303,0 -2.6197,-2.94154 -5.5926,-6.536756 z"
       id="path7"
       inkscape:export-filename="..\..\GitHub\SMAREACTcleaned\preprocessor\media\maestro_logo.png"
       inkscape:export-xdpi="500"
       inkscape:export-ydpi="500" /><path
       style="fill:#500000;fill-opacity:1"
       d="M 65.756217,52.383687 V -5.5600624 h 57.943743 57.94375 V 52.383687 110.32743 H 123.69996 65.756217 Z m 77.743013,48.168403 c 1.16849,-1.204058 3.21948,-5.032748 3.21948,-6.009989 0,-1.035553 -0.62852,-0.589893 -0.83572,0.592584 -0.1,0.570648 -0.36493,1.454261 -0.58873,1.963584 l -0.40692,0.926042 -0.0104,-1.632006 c -0.006,-0.897604 -0.0826,-1.820338 -0.17095,-2.050521 -0.24382,-0.635386 -1.09633,-0.500609 -1.58894,0.251201 -0.51861,0.791502 -0.26792,1.243564 0.27816,0.501594 0.35189,-0.478114 0.38651,-0.48081 0.55609,-0.04331 0.0995,0.256598 0.13406,1.294589 0.0769,2.306646 -0.12144,2.149036 -0.78223,3.312225 -1.88165,3.312225 -0.78263,0 -1.10974,0.24414 -0.8627,0.64386 0.34728,0.56191 1.22286,0.26078 2.21536,-0.76191 z m -37.3655,-2.329342 c 0.19332,-0.254661 0.35527,-0.68457 0.3599,-0.955353 0.008,-0.4443 -0.0378,-0.435288 -0.46505,0.09237 -0.61639,0.761218 -2.87147,1.086758 -3.1159,0.449806 -0.0875,-0.228137 0.22913,-1.679398 0.70371,-3.225025 0.69928,-2.277444 0.99192,-2.880404 1.54353,-3.180368 0.64829,-0.35253 0.60589,-0.370641 -0.89126,-0.38073 -1.31496,-0.0089 -1.49984,0.04347 -1.13096,0.320136 0.4051,0.303828 0.35811,0.588979 -0.57767,3.505729 -0.6963,2.170291 -1.15474,3.20207 -1.44873,3.260546 -0.23655,0.04705 -0.43009,0.195879 -0.43009,0.330729 0,0.134851 1.14774,0.245183 2.55052,0.245183 2.11878,0 2.61002,-0.07838 2.902,-0.463021 z m 2.74314,-0.233631 0.82792,-0.696652 -0.17485,0.696652 c -0.14462,0.576215 -0.0846,0.696652 0.34732,0.696652 0.56223,0 2.03549,-1.027489 1.80448,-1.258492 -0.0769,-0.07691 -0.32417,0.01316 -0.54949,0.200159 -0.75318,0.625086 -0.75318,0.01886 0,-1.852083 0.73703,-1.830822 0.7535,-2.477435 0.0482,-1.892083 -0.19881,0.164996 -0.43084,0.230622 -0.51563,0.145837 -0.54186,-0.541869 -2.61454,1.245097 -3.37727,2.911734 -0.81634,1.783758 0.0422,2.350055 1.58932,1.048276 z m -0.78733,-0.504513 c 0,-0.650465 1.0154,-2.461403 1.53648,-2.740277 0.26202,-0.140232 0.6148,-0.169437 0.78395,-0.0649 0.38486,0.237859 -0.18839,1.428892 -1.19604,2.484987 -0.78285,0.820488 -1.12439,0.917747 -1.12439,0.32019 z m 6.89989,0.599557 c 1.25069,-0.842837 2.1384,-2.24523 2.04227,-3.22633 -0.065,-0.662813 -0.20988,-0.817285 -0.83378,-0.888649 -0.50567,-0.05784 -0.96458,0.110368 -1.38906,0.509141 -0.34865,0.327537 -0.6339,0.525408 -0.6339,0.439714 0,-0.08569 0.37021,-1.125297 0.82269,-2.31023 0.45249,-1.184932 0.77471,-2.202414 0.71605,-2.261069 -0.25183,-0.25183 -1.29366,0.233652 -1.17349,0.54683 0.0718,0.187186 -0.33815,1.570217 -0.91107,3.073401 -0.97625,2.561401 -1.27548,4.132222 -0.86529,4.542411 0.35344,0.353439 1.35372,0.162324 2.22558,-0.425219 z m -1.60822,-0.404925 c 0,-0.733934 1.47439,-2.890657 2.11515,-3.094028 0.83593,-0.265314 0.93356,0.0034 0.41726,1.148306 -0.8473,1.878963 -2.53241,3.173685 -2.53241,1.945722 z m 6.71648,0.454005 c 0.92433,-0.727078 1.4856,-1.852154 1.4856,-2.9779 0,-0.951255 -0.32532,-1.232072 -1.42734,-1.232072 -1.05259,0 -2.54141,1.973807 -2.54141,3.369273 0,1.432718 1.2098,1.842311 2.48315,0.840699 z m -1.6894,-0.439959 c 0,-0.795713 1.41518,-3.373138 1.85209,-3.373138 0.55089,0 0.42091,1.799338 -0.208,2.879393 -0.55851,0.959152 -1.64409,1.285168 -1.64409,0.493745 z m 5.37857,-0.528867 c 0.40162,-0.836745 0.90825,-1.758899 1.12585,-2.049232 0.33975,-0.453307 0.43154,-0.471995 0.64978,-0.132292 0.22543,0.350902 0.28356,0.350756 0.51467,-0.0013 0.37054,-0.564463 0.33112,-0.786378 -0.17413,-0.980262 -0.3019,-0.11585 -0.66619,0.09772 -1.14503,0.671293 l -0.70226,0.841197 0.11672,-0.795281 c 0.0951,-0.647574 0.0227,-0.795281 -0.38955,-0.795281 -0.60616,0 -1.14128,0.483823 -1.14128,1.031875 0,0.308681 0.0705,0.32632 0.3175,0.07937 0.66983,-0.669837 0.68669,-0.250998 0.0636,1.580926 -0.75729,2.226526 -0.73421,2.070324 -0.3059,2.070324 0.18689,0 0.6684,-0.684609 1.07002,-1.521354 z m 3.378,1.067433 c 0.7558,-0.44646 1.00838,-0.868995 0.51946,-0.868995 -0.13693,0 -0.32255,0.119062 -0.41249,0.264583 -0.2503,0.405001 -0.66145,0.314603 -0.66145,-0.145431 0,-1.021281 1.60131,-3.157255 2.21388,-2.953066 0.49718,0.165726 0.44681,0.621496 -0.16914,1.530595 -0.68476,1.010658 -0.76989,2.449903 -0.15203,2.570154 0.42817,0.08333 1.9257,-0.976198 1.69949,-1.202411 -0.0769,-0.07691 -0.32418,0.01316 -0.5495,0.200159 -0.72459,0.601355 -0.69978,0.111516 0.0954,-1.884513 0.45276,-1.136447 0.66539,-1.993053 0.50895,-2.05034 -0.14779,-0.05412 -0.34423,0.0069 -0.43654,0.13558 -0.0923,0.128686 -0.50606,0.250338 -0.91945,0.270337 -0.89214,0.04316 -2.13507,1.147011 -2.84449,2.526208 -0.96696,1.879861 -0.50015,2.557029 1.10788,1.60714 z m 5.51063,-0.231057 c 0.9807,-0.825206 1.08423,-1.356331 0.14434,-0.74049 -0.36835,0.241348 -0.71139,0.392921 -0.76232,0.336829 -0.0509,-0.05609 0.14732,-0.727064 0.44056,-1.491048 0.42998,-1.120231 0.65131,-1.389063 1.14358,-1.389063 0.33573,0 0.684,-0.119062 0.77393,-0.264583 0.0934,-0.151131 -0.1391,-0.264583 -0.54223,-0.264583 -0.62069,0 -0.68575,-0.07973 -0.53974,-0.661459 0.0913,-0.363802 0.0584,-0.661458 -0.0732,-0.661458 -0.13156,0 -0.43423,0.297656 -0.6726,0.661458 -0.23837,0.363802 -0.60925,0.661459 -0.82418,0.661459 -0.21493,0 -0.39078,0.119062 -0.39078,0.264583 0,0.145521 0.17151,0.264583 0.38112,0.264583 0.30848,0 0.26243,0.348926 -0.24163,1.83094 -0.34251,1.007017 -0.5537,1.899985 -0.46931,1.984375 0.30934,0.30934 0.83748,0.13737 1.63244,-0.531543 z m 4.27603,-0.132747 c 0.94116,-1.007511 1.4419,-2.657055 1.03653,-3.414503 -0.37177,-0.694663 -1.5734,-0.693813 -2.45766,0.0017 -0.96881,0.762072 -1.67862,2.727597 -1.29169,3.576819 0.44304,0.972371 1.72358,0.894931 2.71282,-0.164056 z m -1.80321,0.253999 c -0.63014,-0.630141 1.09982,-4.222779 1.81927,-3.778129 0.59475,0.367573 -0.0853,2.764963 -1.02564,3.61601 -0.36579,0.331035 -0.58079,0.374954 -0.79363,0.162119 z m 4.9337,-0.638537 c 0.77114,-1.743281 1.63513,-2.888718 1.88004,-2.492451 0.27204,0.440171 0.78791,0.0773 0.78791,-0.554234 0,-0.765458 -0.9149,-0.641444 -1.57914,0.214052 -0.50972,0.656475 -0.54889,0.66928 -0.4007,0.130989 0.22049,-0.800922 -0.51497,-1.07728 -1.20502,-0.4528 -0.60623,0.548635 -0.71269,1.14241 -0.11604,0.647234 0.679,-0.563518 0.68094,-0.163453 0.009,1.812723 -0.50659,1.489441 -0.56595,1.89675 -0.2764,1.89675 0.20281,0 0.60805,-0.541018 0.90055,-1.202263 z M 79.536133,81.553999 c 0.01919,-4.176502 0.06128,-4.608492 0.380204,-3.902604 0.197241,0.436562 1.135266,2.575236 2.0845,4.752608 l 1.72588,3.958858 0.898358,-1.974483 c 0.494097,-1.085966 1.421594,-3.164953 2.061104,-4.619971 l 1.162746,-2.645487 0.07239,4.563716 0.07239,4.563717 h 1.052086 1.052085 v -7.14375 -7.14375 h -1.158974 -1.158973 l -1.883735,4.27193 c -1.036054,2.349561 -1.883734,4.373623 -1.883734,4.497916 0,0.758803 -0.529772,-0.110816 -1.436125,-2.357396 -0.571587,-1.416795 -1.431216,-3.446215 -1.910286,-4.509822 l -0.871036,-1.93383 -1.132423,0.08175 -1.132422,0.08175 -0.07047,7.077604 -0.07047,7.077604 h 1.062655 1.062655 z m 16.514871,3.638021 0.47725,-1.058334 h 2.96234 2.962336 l 0.47724,1.058334 c 0.45061,0.999283 0.54143,1.058333 1.62768,1.058333 0.63275,0 1.14912,-0.02977 1.14749,-0.06615 -0.0169,-0.379279 -6.047086,-13.824479 -6.200256,-13.824479 -0.11366,0 -1.55181,3.125391 -3.19588,6.945313 l -2.98922,6.945312 h 1.12689 c 1.05878,0 1.15574,-0.06397 1.60413,-1.058333 z m 2.40674,-5.351218 c 0.5123,-1.196919 0.98071,-2.225463 1.0409,-2.285653 0.0602,-0.06019 0.21884,0.174968 0.35255,0.522572 0.13371,0.347604 0.553756,1.331431 0.933436,2.186283 0.37968,0.854852 0.69033,1.598993 0.69033,1.653646 0,0.05465 -0.88845,0.09937 -1.974336,0.09937 h -1.97434 z m 18.627636,5.483509 V 84.39827 h -3.175 -3.175 v -2.116667 -2.116667 h 2.51354 2.51354 v -0.926041 -0.926042 h -2.51354 -2.51354 V 76.196186 74.07952 h 3.175 3.175 v -1.058333 -1.058334 h -4.23334 -4.23333 v 7.14375 7.14375 h 4.23333 4.23334 z m 9.81068,0.311211 c 1.47148,-0.778139 2.19733,-1.98879 2.19733,-3.664964 0,-2.126021 -1.34819,-3.47755 -3.93822,-3.94799 -2.47729,-0.449961 -2.8968,-0.731695 -2.99057,-2.008435 -0.0652,-0.887987 0.032,-1.169788 0.5219,-1.512929 0.90495,-0.633855 2.35125,-0.530068 3.40046,0.244019 l 0.90231,0.665703 0.46,-0.864141 c 0.45673,-0.858006 0.455,-0.86827 -0.24294,-1.445894 -1.06334,-0.880034 -2.93703,-1.250586 -4.2836,-0.847146 -1.95899,0.586929 -3.27753,2.774141 -2.80568,4.654118 0.27186,1.083181 1.76819,2.336088 3.22712,2.702123 0.70501,0.176882 1.7288,0.438561 2.27509,0.58151 1.88597,0.493505 2.30244,2.489925 0.77236,3.702528 -0.99568,0.789095 -3.38195,0.583191 -4.67548,-0.403434 l -0.9067,-0.691573 -0.4417,0.674114 c -0.41649,0.635648 -0.41328,0.706055 0.0562,1.233869 1.3835,1.555389 4.45375,1.995863 6.47212,0.928522 z m 10.56223,-5.470586 V 74.07952 h 2.38125 2.38125 v -1.058333 -1.058334 h -5.70451 -5.70451 l 0.0821,0.992188 0.0821,0.992187 2.33071,0.07668 2.3307,0.07667 -0.0817,6.07515 -0.0817,6.07515 0.99218,-2.62e-4 0.99219,-2.62e-4 z m 9.26042,3.850955 V 81.78143 l 1.25677,-0.08064 1.25677,-0.08064 1.26764,2.315104 c 1.26326,2.307095 1.27127,2.315104 2.31511,2.315104 0.5761,0 1.04746,-0.05368 1.04746,-0.119298 0,-0.06561 -0.54183,-1.255695 -1.20407,-2.644625 l -1.20406,-2.525327 0.82865,-1.031141 c 2.15858,-2.686072 1.2578,-6.229266 -1.92136,-7.557606 -0.63914,-0.267049 -1.8114,-0.409503 -3.36983,-0.409503 h -2.38975 v 7.14375 7.14375 h 1.05833 1.05834 z m 0,-7.126446 V 74.07952 h 1.48166 c 1.33226,0 1.57239,0.09071 2.38125,0.899583 1.18113,1.181129 1.23076,2.425594 0.14517,3.640577 -0.65963,0.73825 -0.95883,0.859128 -2.38125,0.962016 l -1.62683,0.117675 z m 18.51146,8.967338 c 2.81549,-0.993361 4.62082,-3.629441 4.61039,-6.731911 -0.01,-2.868368 -1.35962,-5.094156 -3.90399,-6.436776 -1.51856,-0.801321 -4.36596,-0.807625 -5.8564,-0.01297 -4.49895,2.398695 -5.20395,8.516232 -1.37031,11.890733 0.67074,0.590409 1.61064,1.198796 2.08867,1.35197 1.28377,0.411361 3.16619,0.385429 4.43164,-0.06105 z m -4.46296,-2.274029 c -1.25389,-0.764426 -1.80731,-1.49239 -2.26334,-2.97722 -0.98751,-3.215324 1.30905,-6.526014 4.52697,-6.526014 2.17443,0 4.3272,1.902252 4.75928,4.205429 0.21062,1.122689 -0.2504,2.995794 -0.99457,4.040883 -1.22905,1.726044 -4.23185,2.352134 -6.02834,1.256922 z M 94.860384,72.888895 c 0,-0.293982 -0.30868,-0.396875 -1.19063,-0.396875 -0.65484,0 -1.190621,-0.09763 -1.190621,-0.216953 0,-0.119324 0.535781,-0.698395 1.190621,-1.286825 0.87709,-0.788132 1.19063,-1.266494 1.19063,-1.816515 0,-1.699303 -2.372691,-2.696246 -3.29229,-1.383336 -0.226533,0.323421 -0.411878,0.74014 -0.411878,0.926042 0,0.520646 0.627548,0.400313 0.996931,-0.191163 0.463681,-0.742472 1.331797,-0.669348 1.702097,0.143374 0.28587,0.627424 0.19459,0.785378 -1.360679,2.354597 -0.931943,0.940301 -1.587732,1.810487 -1.487112,1.973293 0.103004,0.166665 0.96551,0.291236 2.016462,0.291236 1.456029,0 1.836469,-0.08222 1.836469,-0.396875 z M 87.88421,63.287752 c 2.163406,-2.442973 7.009284,-7.916029 10.768634,-12.162347 l 6.835156,-7.720578 3.48753,4.290993 c 4.04934,4.982236 7.94223,9.783 11.79324,14.543596 1.50089,1.855391 2.82214,3.373437 2.93611,3.373437 0.11397,0 1.33694,-1.398984 2.71771,-3.108854 1.38077,-1.709869 3.9586,-4.894791 5.72851,-7.077604 1.76991,-2.182812 4.67035,-5.78037 6.44542,-7.994572 l 3.2274,-4.025823 1.03735,1.115406 c 1.45832,1.568052 2.52077,2.757289 5.8422,6.539364 1.59746,1.819011 3.02479,3.436164 3.17184,3.593674 0.14704,0.15751 2.81648,3.167412 5.93207,6.688671 3.1156,3.521259 5.75398,6.368949 5.86309,6.328201 0.40371,-0.150782 6.06699,-5.345399 6.06699,-5.564923 0,-0.125229 -2.09346,-2.751021 -4.65213,-5.835093 -2.55868,-3.084073 -5.04139,-6.083655 -5.51715,-6.665738 -0.47575,-0.582083 -3.82378,-4.630208 -7.44006,-8.995833 -3.61627,-4.365625 -7.43817,-8.983342 -8.49309,-10.261593 l -1.91805,-2.324093 -4.57674,5.522667 c -2.51721,3.037467 -6.54127,7.916371 -8.94236,10.842011 -2.4011,2.925639 -4.42516,5.319283 -4.49792,5.31921 -0.0728,-7.4e-5 -0.67659,-0.677981 -1.34183,-1.50646 -4.28672,-5.338544 -16.4855,-19.894867 -16.6727,-19.894867 -0.1247,0 -1.13413,1.101328 -2.24316,2.447396 -2.29382,2.784072 -11.537085,13.946134 -20.053733,24.216654 -3.170923,3.823926 -5.726719,7.067628 -5.679546,7.208227 0.10181,0.303449 5.831021,5.531482 6.074178,5.542823 0.09217,0.0043 1.937636,-1.99098 4.101041,-4.433952 z m 25.23242,-0.613421 c 1.0914,-1.324913 2.02008,-2.503511 2.06373,-2.619107 0.0436,-0.115596 -0.439,-0.847184 -1.07255,-1.625752 -0.63354,-0.778567 -2.46707,-3.041505 -4.07451,-5.02875 -1.60743,-1.987245 -3.30521,-4.070839 -3.77284,-4.630208 l -0.85023,-1.017035 -1.95327,2.116666 c -1.07429,1.164167 -2.09041,2.368686 -2.25805,2.676709 -0.27553,0.506287 0.17139,1.13483 4.65617,6.548437 2.72852,3.293618 5.0321,5.988301 5.11906,5.988184 0.087,-1.16e-4 1.05108,-1.084231 2.14249,-2.409144 z m 28.38876,-3.545589 c 2.72181,-3.275219 4.94873,-6.059076 4.94873,-6.186348 0,-0.360574 -4.25958,-5.092827 -4.50387,-5.003645 -0.11949,0.04362 -1.42226,1.567594 -2.89504,3.386605 -1.47278,1.81901 -3.63452,4.469985 -4.80387,5.891054 -1.16935,1.421069 -2.08702,2.688439 -2.03926,2.816376 0.13344,0.357454 4.03607,5.050451 4.20009,5.050691 0.0795,1.17e-4 2.37142,-2.679513 5.09322,-5.954733 z m -16.0533,-15.807034 c 0.85093,-1.055026 1.74818,-2.156354 1.99389,-2.447396 0.24571,-0.291041 3.14526,-3.778565 6.44343,-7.750053 5.32043,-6.406575 5.95676,-7.271823 5.64268,-7.672568 -0.4804,-0.612948 -4.10111,-5.007936 -10.39936,-12.623212 -2.88849,-3.4924996 -5.28762,-6.3947156 -5.33141,-6.4493686 -0.0438,-0.054653 -0.41193,0.2939319 -0.81809,0.7746332 -0.87907,1.0403936 -14.86343,17.9751094 -15.20617,18.4142974 -0.15814,0.202644 0.627,1.354417 2.35267,3.451265 9.14938,11.117364 13.42435,16.220631 13.58788,16.220631 0.10303,0 0.88354,-0.863203 1.73448,-1.918229 z"
       id="path6" /><rect
       style="fill:url(#pattern15);fill-rule:evenodd;stroke:#000000;stroke-width:1;stroke-linecap:round;stroke-dasharray:none;fill-opacity:1"
       id="rect1"
       width="35.068535"
       height="22.540453"
       x="41.905739"
       y="141.31532"
       inkscape:export-filename="..\..\GitHub\SMAREACTcleaned\preprocessor\media\rectangle.png"
       inkscape:export-xdpi="350"
       inkscape:export-ydpi="350" /><rect
       style="fill:url(#pattern14);fill-rule:evenodd;stroke:#000000;stroke-width:1;stroke-linecap:round;stroke-dasharray:none;fill-opacity:1"
       id="rect2"
       width="34.997681"
       height="34.997681"
       x="-6.3790655"
       y="135.26868"
       inkscape:export-filename="..\..\GitHub\SMAREACTcleaned\preprocessor\media\square.png"
       inkscape:export-xdpi="350"
       inkscape:export-ydpi="350" /><rect
       style="fill:url(#pattern16);fill-rule:evenodd;stroke:#000000;stroke-width:1;stroke-linecap:round;stroke-dasharray:none;fill-opacity:1"
       id="rect3"
       width="34.997681"
       height="34.997681"
       x="90.261398"
       y="135.08672"
       inkscape:export-filename="..\..\GitHub\SMAREACTcleaned\preprocessor\media\cintraquad.png"
       inkscape:export-xdpi="350"
       inkscape:export-ydpi="350" /><circle
       style="fill:#f9f9f9;fill-rule:evenodd;stroke:#000000;stroke-width:1;stroke-linecap:round;stroke-dasharray:none;fill-opacity:1"
       id="path4"
       cx="107.76024"
       cy="152.58556"
       r="7.2029071" /><ellipse
       style="fill:url(#pattern17);fill-rule:evenodd;stroke:#000000;stroke-width:1;stroke-linecap:round;stroke-dasharray:none;fill-opacity:1"
       id="path5"
       cx="158.30261"
       cy="152.57767"
       rx="17.490948"
       ry="17.490944"
       inkscape:export-filename="..\..\GitHub\SMAREACTcleaned\preprocessor\media\circle.png"
       inkscape:export-xdpi="350"
       inkscape:export-ydpi="350" /><path
       sodipodi:type="star"
       style="fill:url(#pattern18);fill-opacity:1;fill-rule:evenodd;stroke:#000000;stroke-width:4.77284589;stroke-linecap:round;stroke-dasharray:none"
       id="path8"
       inkscape:flatsided="false"
       sodipodi:sides="5"
       sodipodi:cx="972.05444"
       sodipodi:cy="556.9447"
       sodipodi:r1="86.887871"
       sodipodi:r2="43.443935"
       sodipodi:arg1="0.77763186"
       sodipodi:arg2="1.4059504"
       inkscape:rounded="0"
       inkscape:randomized="0"
       d="m 1033.9687,617.9047 -54.78509,-18.105 -45.973,34.86668 0.28934,-57.69852 -47.36662,-32.94852 54.96396,-17.55464 16.69882,-55.22999 33.68025,46.84916 57.68704,-1.18549 -34.1484,46.509 z"
       transform="matrix(0.21037486,0,0,0.20866583,0.86999618,35.19864)"
       inkscape:transform-center-x="0.92693377"
       inkscape:transform-center-y="-0.83344736" /></g></svg>
